<svg height="496pt" viewBox="0 0 496 496" width="496pt" xmlns="http://www.w3.org/2000/svg" xmlns:xlink="http://www.w3.org/1999/xlink"><linearGradient id="a" gradientUnits="userSpaceOnUse" x1="248" x2="248" y1="496" y2="0"><stop offset="0" stop-color="#9f2fff"/><stop offset="1" stop-color="#0bb1d3"/></linearGradient><path d="m360 168c0-4.414062 3.585938-8 8-8s8 3.585938 8 8-3.585938 8-8 8-8-3.585938-8-8zm-72-8c-4.414062 0-8 3.585938-8 8s3.585938 8 8 8 8-3.585938 8-8-3.585938-8-8-8zm72 56h-16c0 8.824219-7.175781 16-16 16s-16-7.175781-16-16h-16c0 17.648438 14.351562 32 32 32s32-14.351562 32-32zm136 154.59375v77.40625h-257.472656c-3.3125 9.289062-12.113282 16-22.527344 16h-48v16h16v16h-128v-16h16v-16h-48c-13.230469 0-24-10.769531-24-24v-112c0-13.230469 10.769531-24 24-24h8v-13.769531l19.648438-6.542969-9.265626-18.519531 30.785157-30.785157 18.519531 9.265626 6.542969-19.648438h43.53125l6.542969 19.648438 18.519531-9.265626 30.785156 30.785157-9.265625 18.519531 19.65625 6.542969v13.769531h8c4.496094 0 8.664062 1.320312 12.265625 3.480469l51.734375-17.25v-16.574219c-17.679688-11.558594-30.910156-29.304688-36.710938-50.136719-19.816406-2.359375-35.289062-19.078125-35.289062-39.519531v-74.175781c0-60.558594 49.265625-109.824219 109.824219-109.824219 29.335937 0 56.910156 11.425781 77.65625 32.167969l8.535156 8.535156c25.632813 6.289063 43.984375 29.480469 43.984375 56.089844v87.207031c0 20.441406-15.472656 37.160156-35.289062 39.519531-5.789063 20.839844-19.03125 38.578125-36.710938 50.136719v16.574219l81.710938 27.242187c22.898437 7.632813 38.289062 28.984375 38.289062 53.121094zm-125.839844-65.441406-30.847656 30.847656 27.230469 27.230469 30.664062-49.0625zm-130.160156 126.847656h57.054688l6.753906-47.265625-3.304688-9.925781-13.960937 13.960937-43.375-69.394531-4.390625 1.464844c.726562 2.273437 1.222656 4.648437 1.222656 7.160156zm73.222656 0h29.546875l-5.714843-40h-18.117188zm29.625-69.839844-14.847656-14.847656-14.847656 14.847656 4.617187 13.839844h20.46875zm89.152344-178.160156c0-10.414062-6.710938-19.214844-16-22.527344v38.527344c0 2.238281-.167969 4.433594-.335938 6.632812 9.464844-3.21875 16.335938-12.097656 16.335938-22.632812zm-191.664062 22.632812c-.167969-2.199218-.335938-4.394531-.335938-6.632812v-38.527344c-9.289062 3.3125-16 12.113282-16 22.527344 0 10.535156 6.871094 19.414062 16.335938 22.632812zm10.40625-78.632812c27.050781 0 52.480468-10.527344 71.601562-29.65625l5.65625-5.65625 5.65625 5.65625c19.128906 19.128906 44.550781 29.65625 71.601562 29.65625h10.742188v16.808594c5.945312 1.214844 11.328125 3.855468 16 7.390625v-55.414063c0-19.832031-14.121094-37.058594-33.566406-40.945312l-2.378906-.480469-11.886719-11.886719c-17.71875-17.710937-41.289063-27.472656-66.34375-27.472656-51.734375 0-93.824219 42.089844-93.824219 93.824219v42.382812c4.671875-3.535156 10.054688-6.183593 16-7.390625v-16.816406zm77.257812 144c39.703125 0 72-32.296875 72-72v-56.121094c-26.769531-1.167968-51.921875-11.285156-72-28.917968-20.078125 17.632812-45.230469 27.75-72 28.917968v56.121094c0 39.703125 32.296875 72 72 72zm-32 9.886719v10.800781l32 32 32-32v-10.800781c-9.9375 3.898437-20.703125 6.113281-32 6.113281s-22.0625-2.214844-32-6.113281zm-37.214844 32.28125 30.664063 49.0625 27.238281-27.230469-30.847656-30.847656zm-210.785156 8.0625 18.367188 6.121093 1.34375 3.542969c.394531 1.035157.800781 2.035157 1.234374 3.027344l1.550782 3.460937-8.648438 17.296876 14.472656 14.472656 17.296876-8.648438 3.460937 1.550782c.992187.441406 1.992187.839843 3.027344 1.234374l3.542969 1.34375 6.121093 18.367188h20.46875l6.121094-18.367188 3.542969-1.34375c1.035156-.394531 2.035156-.800781 3.027344-1.234374l3.460937-1.550782 17.296875 8.648438 14.472656-14.472656-8.648437-17.296876 1.550781-3.460937c.441406-.992187.839844-1.992187 1.234375-3.027344l1.34375-3.542969 18.359375-6.121093v-20.46875l-18.367188-6.121094-1.34375-3.542969c-.394531-1.035156-.800781-2.035156-1.234374-3.027344l-1.550782-3.460937 8.648438-17.296875-14.472656-14.472656-17.296876 8.648437-3.460937-1.550781c-.992187-.441406-1.992187-.839844-3.027344-1.234375l-3.542969-1.34375-6.121093-18.359375h-20.46875l-6.121094 18.367188-3.542969 1.34375c-1.035156.394531-2.035156.800781-3.027344 1.234374l-3.460937 1.550782-17.296875-8.648438-14.464844 14.472656 8.648438 17.296876-1.550782 3.460937c-.441406.992187-.839843 1.992187-1.234374 3.027344l-1.34375 3.542969-18.367188 6.121093zm-32 5.769531v88h208v-88c0-4.414062-3.585938-8-8-8h-8v13.769531l-19.648438 6.542969 9.265626 18.519531-30.785157 30.785157-18.519531-9.265626-6.542969 19.648438h-43.53125l-6.542969-19.648438-18.519531 9.265626-30.785156-30.785157 9.265625-18.519531-19.65625-6.542969v-13.769531h-8c-4.414062 0-8 3.585938-8 8zm136 136h-64v16h64zm72-24v-8h-208v8c0 4.414062 3.585938 8 8 8h192c4.414062 0 8-3.585938 8-8zm256-69.40625c0-17.242188-10.992188-32.496094-27.351562-37.945312l-39.824219-13.273438-43.367188 69.394531-13.960937-13.960937-3.304688 9.925781 6.753906 47.265625h57.054688v-56h16v56h48zm-400-58.59375c0-22.054688 17.945312-40 40-40s40 17.945312 40 40-17.945312 40-40 40-40-17.945312-40-40zm16 0c0 13.230469 10.769531 24 24 24s24-10.769531 24-24-10.769531-24-24-24-24 10.769531-24 24zm0 0" fill="url(#a)"/></svg>