<?xml version="1.0"?>
<svg xmlns="http://www.w3.org/2000/svg" xmlns:xlink="http://www.w3.org/1999/xlink" xmlns:svgjs="http://svgjs.com/svgjs" version="1.1" width="512" height="512" x="0" y="0" viewBox="0 0 512 512" style="enable-background:new 0 0 512 512" xml:space="preserve" class=""><g><g xmlns="http://www.w3.org/2000/svg"><g clip-rule="evenodd" fill-rule="evenodd"><path d="m24.419 53.729h463.162c12.715 0 23.094 10.381 23.094 23.066v286.259c0 12.685-10.379 23.066-23.094 23.066h-463.162c-12.715 0-23.094-10.381-23.094-23.066v-286.259c0-12.685 10.379-23.066 23.094-23.066z" fill="#a487c9" data-original="#cbe2ff" style="" class=""/><path d="m457.491 53.729h30.09c12.715 0 23.094 10.381 23.094 23.066v286.259c0 12.685-10.379 23.066-23.094 23.066h-30.09c12.684 0 23.094-10.381 23.094-23.066v-286.259c0-12.685-10.382-23.066-23.094-23.066z" fill="#683aa4" data-original="#9dc6fb" style="" class=""/><path d="m209.798 386.12h92.432l10.439 83.645h-113.338z" fill="#d5c6e4" data-original="#d5c6e4" style="" class=""/><path d="m272.112 386.12h30.118l10.439 83.645h-30.091z" fill="#c6b4da" data-original="#c6b4da" style="" class=""/><path d="m192.591 78.928h112.114c17.321 0 31.484 14.163 31.484 31.484v86.916c0 17.321-14.163 31.513-31.484 31.513h-112.114c-17.32 0-31.485-14.192-31.485-31.513v-86.916c-.001-17.321 14.164-31.484 31.485-31.484z" fill="#683aa4" data-original="#365e7d" style="" class=""/><path d="m274.614 78.928h30.091c17.321 0 31.484 14.163 31.484 31.484v86.916c0 17.321-14.163 31.513-31.484 31.513h-30.091c17.321 0 31.483-14.192 31.483-31.513v-86.916c.001-17.321-14.162-31.484-31.483-31.484z" fill="#2b4d66" data-original="#2b4d66" style="" class=""/></g><path d="m369.608 159.643c-4.152 0-7.51-3.385-7.51-7.537s3.358-7.537 7.51-7.537h.256v-54.407c0-4.181 3.385-7.537 7.537-7.537s7.508 3.356 7.508 7.537v54.407h.256c4.182 0 7.536 3.385 7.536 7.537s-3.354 7.537-7.536 7.537z" fill="#3e6dab" data-original="#3e6dab" style="" class=""/><path clip-rule="evenodd" d="m94.127 82.284c-3.696-1.848-3.981-4.749 0-6.741l147.78-73.89c4.438-2.218 9.102-2.189 13.482 0l147.779 73.89c4.238 2.104 4.125 4.693 0 6.741l-147.779 73.89c-4.295 2.133-8.816 2.332-13.482 0z" fill="#8b56cf" fill-rule="evenodd" data-original="#4a80aa" style="" class=""/><path clip-rule="evenodd" d="m233.602 5.806 8.305-4.153c4.438-2.218 9.102-2.189 13.482 0l147.779 73.89c4.238 2.104 4.125 4.693 0 6.741l-147.779 73.89c-4.295 2.133-8.816 2.332-13.482 0l-8.305-4.153 139.476-69.737c4.094-2.048 4.209-4.636 0-6.741z" fill="#683aa4" fill-rule="evenodd" data-original="#407093" style="" class=""/><path d="m61.904 256.115 35.438 20.478c.796.427 1.479 1.081 1.963 1.934 1.449 2.503.596 5.717-1.906 7.168l-35.183 20.307c-.824.568-1.848.882-2.929.882-2.9 0-5.262-2.332-5.262-5.233v-40.983h.029c-.029-.91.197-1.793.682-2.645 1.45-2.505 4.664-3.358 7.168-1.908z" fill="#dd636e" data-original="#dd636e" style="" class=""/><path d="m161.105 288.766c-4.18 0-7.536-3.384-7.536-7.537s3.356-7.509 7.536-7.509h296.613c4.152 0 7.536 3.356 7.536 7.509 0 4.152-3.384 7.537-7.536 7.537z" fill="#78c2a4" data-original="#78c2a4" style="" class=""/><path d="m241.11 268.345c0-4.152 3.386-7.508 7.537-7.508 4.153 0 7.537 3.356 7.537 7.508v25.768c0 4.153-3.384 7.537-7.537 7.537-4.151 0-7.537-3.384-7.537-7.537z" fill="#dd636e" data-original="#dd636e" style="" class=""/><path clip-rule="evenodd" d="m510.675 344.88h-509.35v18.174c0 12.685 10.379 23.066 23.094 23.066h185.379 92.433 185.351c12.715 0 23.094-10.381 23.094-23.066v-18.174zm-131.056 167.12h-247.238c-3.3 0-6.058-2.958-5.546-6.285 3.044-20.278 20.647-35.95 41.751-35.95h174.828c21.104 0 38.707 15.671 41.779 35.95.484 3.327-2.274 6.285-5.574 6.285z" fill="#e2d8ec" fill-rule="evenodd" data-original="#e2d8ec" style="" class=""/><path clip-rule="evenodd" d="m510.675 344.88h-30.09v18.174c0 12.685-10.41 23.066-23.094 23.066h30.09c12.715 0 23.094-10.381 23.094-23.066zm-131.056 167.12h-30.091c3.3 0 6.058-2.958 5.546-6.285-3.043-20.278-20.648-35.95-41.75-35.95h30.09c21.104 0 38.707 15.671 41.779 35.95.484 3.327-2.274 6.285-5.574 6.285z" fill="#d5c6e4" fill-rule="evenodd" data-original="#d5c6e4" style="" class=""/></g></g></svg>
