<?xml version="1.0"?>
<svg xmlns="http://www.w3.org/2000/svg" xmlns:xlink="http://www.w3.org/1999/xlink" xmlns:svgjs="http://svgjs.com/svgjs" version="1.1" width="512" height="512" x="0" y="0" viewBox="0 0 512.002 512.002" style="enable-background:new 0 0 512 512" xml:space="preserve" class=""><g><g xmlns="http://www.w3.org/2000/svg"><g><g><path d="m332.988 475.682v28.124h-159.092v-28.124c0-36.389 29.513-65.902 65.902-65.902h27.279c36.398 0 65.911 29.513 65.911 65.902z" fill="#683aa4" data-original="#bed8fb" style="" class=""/><path d="m274.807 410.237c-32.766 3.807-58.181 31.659-58.181 65.445v28.124h-42.73v-28.124c0-36.398 29.513-65.911 65.902-65.911h27.279c2.612 0 5.195.155 7.73.466z" fill="#9dc6fb" data-original="#9dc6fb" style="" class=""/><path d="m234.97 444.974v12.792c0 10.199 8.272 18.47 18.47 18.47 5.094 0 9.717-2.065 13.056-5.415 3.35-3.338 5.415-7.962 5.415-13.056v-23.277" fill="#e28086" data-original="#e28086" style=""/><path d="m253.999 389.166h-36.935v44.48c0 10.199 8.268 18.468 18.468 18.468 10.199 0 18.468-8.268 18.468-18.468v-44.48z" fill="#d3effb" data-original="#d3effb" style=""/><path d="m290.935 389.166h-36.935v44.48c0 10.199 8.268 18.468 18.468 18.468 10.199 0 18.468-8.268 18.468-18.468v-44.48z" fill="#d3effb" data-original="#d3effb" style=""/><path d="m319.248 161.219c-11.772 0-22.051 6.368-27.599 15.843-12.986-20.301-35.711-33.771-61.598-33.771-40.366 0-73.089 32.723-73.089 73.089v84.811h130.32v17.928h63.932v-125.934c0-17.654-14.312-31.966-31.966-31.966z" fill="#6c6570" data-original="#6c6570" style="" class=""/><path d="m262.005 150.636c-7.34 3.577-13.996 8.356-19.709 14.069-13.229 13.229-21.409 31.496-21.409 51.682v84.806h-63.926v-84.806c0-20.185 8.18-38.453 21.409-51.682 13.219-13.229 31.496-21.409 51.682-21.409 11.457-.001 22.301 2.643 31.953 7.34z" fill="#545058" data-original="#545058" style="" class=""/><path d="m340.407 338.696h-173.932c-13.967 0-25.289-11.322-25.289-25.289 0-13.967 11.322-25.289 25.289-25.289h173.932c13.967 0 25.289 11.322 25.289 25.289 0 13.966-11.322 25.289-25.289 25.289z" fill="#eaac9d" data-original="#eaac9d" style="" class=""/><path d="m326.657 255.718v91.001c0 40.37-32.289 73.832-72.657 74.133-40.691.304-73.774-32.593-73.774-73.214v-91.921c0-.201.001-.402.002-.603.185-22.978 25.05-37.083 45.149-25.945 8.316 4.608 17.884 7.232 28.065 7.232 22.783 0 42.503-13.14 51.969-32.259 13.129 13.229 21.246 31.452 21.246 51.576z" fill="#ffddce" data-original="#ffddce" style="" class=""/><path d="m274.963 417.584c-6.629 2.078-13.662 3.211-20.961 3.27-40.691.305-73.777-32.594-73.777-73.216v-92.521c.177-22.251 23.502-36.179 43.232-26.93v119.452c0 32.879 21.67 60.686 51.506 69.945z" fill="#ffcbbe" data-original="#ffcbbe" style="" class=""/><path d="m271.194 493.988v9.818h-35.505v-9.818c0-9.799 7.944-17.752 17.752-17.752 4.904 0 9.333 1.991 12.547 5.205 3.225 3.214 5.206 7.643 5.206 12.547z" fill="#e28086" data-original="#e28086" style=""/></g><g><path d="m267.215 14.897 6.957 14.097c1.821 3.691 5.342 6.249 9.415 6.84l15.557 2.261c10.256 1.49 14.352 14.095 6.93 21.329l-11.257 10.973c-2.947 2.873-4.292 7.012-3.596 11.068l2.657 15.494c1.752 10.215-8.97 18.005-18.143 13.182l-13.915-7.315c-3.643-1.915-7.995-1.915-11.638 0l-13.915 7.315c-9.174 4.823-19.895-2.967-18.143-13.182l2.657-15.494c.696-4.056-.649-8.195-3.596-11.068l-11.257-10.973c-7.422-7.234-3.326-19.839 6.93-21.329l15.557-2.261c4.073-.592 7.594-3.15 9.415-6.84l6.957-14.097c4.588-9.294 17.841-9.294 22.428 0z" fill="#ffe07d" data-original="#ffe07d" style="" class=""/><path d="m263.141 10.129c-1.656 1.142-3.074 2.729-4.078 4.768l-6.952 14.096c-1.824 3.687-5.343 6.247-9.42 6.837l-15.553 2.261c-10.256 1.495-14.357 14.096-6.929 21.332l11.252 10.969c2.951 2.874 4.293 7.014 3.595 11.069l-2.652 15.499c-.905 5.243 1.487 9.85 5.274 12.433l-1.41.743c-9.168 4.829-19.891-2.967-18.143-13.176l2.66-15.499c.698-4.055-.652-8.194-3.595-11.069l-11.26-10.969c-7.42-7.236-3.327-19.838 6.929-21.332l15.56-2.261c4.07-.59 7.596-3.15 9.413-6.837l6.96-14.096c3.579-7.266 12.455-8.853 18.349-4.768z" fill="#ffd064" data-original="#ffd064" style=""/></g><g><g><path d="m72.577 56.791 6.957 14.097c1.821 3.691 5.342 6.249 9.415 6.84l15.557 2.261c10.256 1.49 14.352 14.095 6.93 21.329l-11.257 10.973c-2.947 2.873-4.292 7.012-3.596 11.068l2.657 15.494c1.752 10.215-8.97 18.005-18.143 13.182l-13.915-7.315c-3.643-1.915-7.995-1.915-11.638 0l-13.915 7.315c-9.174 4.823-19.895-2.967-18.143-13.182l2.657-15.494c.696-4.056-.649-8.195-3.596-11.068l-11.257-10.973c-7.422-7.234-3.326-19.839 6.93-21.329l15.557-2.261c4.073-.592 7.594-3.15 9.415-6.84l6.957-14.097c4.589-9.294 17.841-9.294 22.428 0z" fill="#ffe07d" data-original="#ffe07d" style="" class=""/><path d="m68.504 52.023c-1.656 1.142-3.074 2.729-4.078 4.768l-6.952 14.096c-1.824 3.687-5.343 6.247-9.42 6.837l-15.553 2.261c-10.256 1.495-14.357 14.096-6.929 21.332l11.252 10.969c2.951 2.874 4.293 7.014 3.595 11.069l-2.652 15.499c-.905 5.243 1.487 9.85 5.274 12.433l-1.41.743c-9.168 4.829-19.891-2.967-18.143-13.176l2.66-15.499c.698-4.055-.652-8.194-3.595-11.069l-11.26-10.969c-7.42-7.236-3.327-19.838 6.929-21.332l15.56-2.261c4.07-.59 7.596-3.15 9.413-6.837l6.96-14.096c3.578-7.267 12.455-8.854 18.349-4.768z" fill="#ffd064" data-original="#ffd064" style=""/></g><g><path d="m461.852 56.791 6.957 14.097c1.821 3.691 5.342 6.249 9.415 6.84l15.557 2.261c10.256 1.49 14.352 14.095 6.93 21.329l-11.257 10.973c-2.947 2.873-4.292 7.012-3.596 11.068l2.657 15.494c1.752 10.215-8.97 18.005-18.143 13.182l-13.915-7.315c-3.643-1.915-7.995-1.915-11.638 0l-13.915 7.315c-9.174 4.823-19.895-2.967-18.143-13.182l2.657-15.494c.696-4.056-.649-8.195-3.596-11.068l-11.257-10.973c-7.422-7.234-3.326-19.839 6.93-21.329l15.557-2.261c4.073-.592 7.594-3.15 9.415-6.84l6.957-14.097c4.588-9.294 17.841-9.294 22.428 0z" fill="#ffe07d" data-original="#ffe07d" style="" class=""/><path d="m457.779 52.023c-1.656 1.142-3.074 2.729-4.078 4.768l-6.952 14.096c-1.824 3.687-5.343 6.247-9.42 6.837l-15.553 2.261c-10.256 1.495-14.357 14.096-6.929 21.332l11.252 10.969c2.951 2.874 4.293 7.014 3.595 11.069l-2.652 15.499c-.905 5.243 1.487 9.85 5.274 12.433l-1.41.743c-9.168 4.829-19.891-2.967-18.143-13.176l2.66-15.499c.698-4.055-.652-8.194-3.595-11.069l-11.26-10.969c-7.42-7.236-3.327-19.838 6.929-21.332l15.56-2.261c4.07-.59 7.596-3.15 9.413-6.837l6.96-14.096c3.578-7.267 12.454-8.854 18.349-4.768z" fill="#ffd064" data-original="#ffd064" style=""/></g></g></g><g><path d="m358.718 286.223v-93.037c0-21.759-17.708-39.462-39.474-39.462-10.278 0-20.065 4.063-27.328 11.022-15.227-18.293-37.694-28.954-61.869-28.954-21.527 0-41.765 8.383-56.986 23.604s-23.604 35.459-23.604 56.986v68.983c-2.219 1.35-4.293 2.972-6.176 4.855-6.19 6.19-9.599 14.427-9.599 23.193 0 18.073 14.71 32.777 32.792 32.777h6.248v1.449c0 10.296 1.915 20.324 5.692 29.805 1.533 3.847 5.894 5.725 9.743 4.192 3.848-1.533 5.725-5.895 4.192-9.743-3.071-7.708-4.627-15.868-4.627-24.255v-91.92l.001-.234c.005-.102.008-.205.009-.307.062-7.994 4.232-15.178 11.154-19.219 7.098-4.143 15.639-4.229 22.851-.23 9.646 5.344 20.609 8.17 31.705 8.17 21.359 0 40.844-10.131 53.028-27.026 8.24 11.202 12.692 24.689 12.692 38.846v91c0 36.473-29.256 66.363-65.215 66.63-17.665.135-34.215-6.618-46.729-19.002-2.944-2.913-7.693-2.889-10.606.056-2.914 2.944-2.889 7.693.056 10.606 2.361 2.336 4.853 4.488 7.436 6.492-23.024 12.737-37.703 37.01-37.703 64.19v28.383c0 4.142 3.358 7.5 7.5 7.5h159.087c4.142 0 7.5-3.358 7.5-7.5v-28.383c0-27.28-14.765-51.608-37.917-64.313 19.183-14.961 31.591-38.414 31.591-64.66v-.529h6.246c8.766 0 17.003-3.409 23.193-9.599s9.599-14.422 9.599-23.178c-.001-11.303-5.752-21.291-14.482-27.188zm-98.024 200.529c1.935 1.929 3 4.499 3 7.236v2.588h-20.505v-2.588c0-5.632 4.566-10.215 10.19-10.249.019 0 .039.001.058.001.022 0 .044-.002.066-.002 2.709.017 5.258 1.081 7.191 3.014zm-36.136-63.724c6.987 2.674 14.354 4.37 21.941 5.012v5.603c0 2.931-1.14 5.68-3.228 7.761-2.062 2.07-4.812 3.209-7.743 3.209-6.049 0-10.971-4.921-10.971-10.97v-10.615zm36.622 42.503c-2.047 2.054-4.772 3.189-7.678 3.206-.02 0-.04-.001-.061-.001s-.043.002-.064.002c-5.72-.031-10.41-4.463-10.865-10.075 4.265-1.183 8.17-3.443 11.367-6.651.043-.042.082-.087.124-.13 2.868 2.904 6.414 5.133 10.378 6.436-.133 2.723-1.244 5.263-3.201 7.213zm11.29-20.917c-6.049 0-10.97-4.921-10.97-10.97v-5.712c7.679-.776 15.04-2.658 21.941-5.473v11.185c0 2.931-1.14 5.68-3.228 7.761-2.062 2.069-4.812 3.209-7.743 3.209zm-91.071 31.078c0-20.896 10.902-39.63 28.159-50.014v7.965c0 11.511 7.531 21.292 17.923 24.688.151 7.073 3.14 13.456 7.876 18.056-4.431 4.552-7.169 10.761-7.169 17.6v2.588h-46.79v-20.883zm144.088 0v20.883h-46.792v-2.588c0-6.638-2.548-12.876-7.165-17.603.085-.083.174-.162.258-.247 4.699-4.683 7.373-10.852 7.599-17.457 4.291-1.177 8.221-3.445 11.434-6.67 4.914-4.898 7.621-11.421 7.621-18.368v-7.273c16.61 10.513 27.045 28.871 27.045 49.323zm-159.013-144.502c-9.81 0-17.792-7.975-17.792-17.777 0-4.76 1.849-9.23 5.205-12.586 3.357-3.357 7.827-5.205 12.586-5.205h6.248v35.568zm144.261-132.334c-1.705-1.719-4.135-2.508-6.524-2.12s-4.445 1.905-5.52 4.074c-8.582 17.326-25.92 28.089-45.249 28.089-8.559 0-17.008-2.175-24.433-6.289-11.884-6.59-25.972-6.442-37.684.395-11.501 6.713-18.444 18.641-18.592 31.928-.009.262-.011.524-.011.786v24.902h-6.248c-.676 0-1.348.027-2.017.068v-64.306c0-17.52 6.822-33.991 19.21-46.38s28.86-19.211 46.38-19.211c22.479 0 43.148 11.333 55.288 30.315 1.407 2.2 3.849 3.512 6.468 3.458 2.611-.052 5.007-1.458 6.325-3.713 4.375-7.481 12.466-12.129 21.116-12.129 13.495 0 24.474 10.974 24.474 24.462v87.602c-1.089-.11-2.193-.167-3.311-.167h-6.246v-24.902c0-21.445-8.319-41.64-23.426-56.862zm42.259 127.128c-3.357 3.357-7.827 5.205-12.586 5.205h-6.246v-35.568h6.246c9.81 0 17.792 7.981 17.792 17.792-.001 4.75-1.85 9.215-5.206 12.571z" fill="#000000" data-original="#000000" style="" class=""/><path d="m220.889 329.02c-2.929 2.929-2.929 7.677 0 10.606 8.695 8.695 20.255 13.484 32.552 13.484 12.296 0 23.857-4.789 32.552-13.484 2.929-2.929 2.929-7.677 0-10.606s-7.678-2.929-10.606 0c-5.862 5.862-13.656 9.09-21.946 9.09s-16.083-3.228-21.945-9.09c-2.929-2.929-7.678-2.93-10.607 0z" fill="#000000" data-original="#000000" style="" class=""/><path d="m241.836 297.198v-14.791c0-4.142-3.358-7.5-7.5-7.5s-7.5 3.358-7.5 7.5v14.791c0 4.142 3.358 7.5 7.5 7.5s7.5-3.358 7.5-7.5z" fill="#000000" data-original="#000000" style="" class=""/><path d="m280.045 297.198v-14.791c0-4.142-3.358-7.5-7.5-7.5s-7.5 3.358-7.5 7.5v14.791c0 4.142 3.358 7.5 7.5 7.5s7.5-3.358 7.5-7.5z" fill="#000000" data-original="#000000" style="" class=""/><path d="m211.95 75.768c1.18 1.15 1.718 2.806 1.439 4.429l-2.658 15.494c-1.296 7.56 1.753 15.057 7.958 19.566 3.506 2.548 7.609 3.842 11.739 3.842 3.179 0 6.375-.767 9.328-2.319l13.915-7.315c1.458-.767 3.199-.767 4.657 0l13.915 7.315c6.79 3.57 14.862 2.986 21.067-1.522 6.206-4.509 9.255-12.006 7.958-19.566l-2.658-15.493c-.278-1.624.26-3.28 1.44-4.43l11.256-10.973c5.493-5.354 7.433-13.211 5.062-20.506-2.37-7.295-8.558-12.512-16.149-13.615l-15.557-2.26c-1.63-.237-3.039-1.26-3.768-2.738l-6.957-14.097c-3.392-6.88-10.265-11.153-17.936-11.153-7.67 0-14.544 4.273-17.939 11.151l-6.957 14.096c-.729 1.478-2.138 2.501-3.769 2.738l-15.557 2.26c-7.591 1.103-13.779 6.32-16.149 13.615s-.43 15.153 5.062 20.506zm-2.053-26.844c.289-.89 1.261-3.002 4.04-3.406l15.557-2.26c6.516-.947 12.147-5.038 15.062-10.944l6.957-14.097c1.243-2.518 3.552-2.79 4.488-2.79s3.245.272 4.488 2.79l6.958 14.098c2.915 5.905 8.545 9.996 15.062 10.943l15.557 2.26c2.779.404 3.751 2.517 4.04 3.406s.744 3.17-1.267 5.13l-11.256 10.973c-4.716 4.596-6.867 11.215-5.754 17.707l2.658 15.494c.475 2.767-1.234 4.345-1.991 4.895s-2.786 1.688-5.271.381l-13.915-7.315c-5.829-3.064-12.788-3.065-18.618 0l-13.915 7.315c-2.485 1.306-4.514.169-5.271-.381-.756-.55-2.465-2.127-1.991-4.895l2.658-15.495c1.113-6.49-1.038-13.11-5.753-17.706l-11.257-10.973c-2.01-1.96-1.555-4.241-1.266-5.13z" fill="#000000" data-original="#000000" style="" class=""/><path d="m105.585 72.567-15.557-2.26c-1.63-.237-3.039-1.26-3.768-2.737l-6.957-14.097c-3.395-6.88-10.269-11.153-17.939-11.153s-14.544 4.273-17.939 11.152l-6.957 14.096c-.729 1.478-2.138 2.501-3.769 2.738l-15.557 2.26c-7.59 1.104-13.778 6.321-16.148 13.616s-.431 15.153 5.062 20.507l11.257 10.973c1.18 1.15 1.717 2.806 1.439 4.43l-2.657 15.494c-1.296 7.56 1.753 15.057 7.958 19.566 3.506 2.548 7.609 3.842 11.739 3.842 3.179 0 6.375-.767 9.328-2.319l13.915-7.315c1.458-.767 3.199-.766 4.657 0l13.915 7.315c6.79 3.57 14.862 2.986 21.067-1.522 6.206-4.509 9.255-12.006 7.958-19.566l-2.658-15.494c-.278-1.624.26-3.28 1.439-4.429l11.258-10.973c5.492-5.354 7.432-13.212 5.062-20.507-2.369-7.297-8.557-12.514-16.148-13.617zm.617 23.38-11.258 10.973c-4.715 4.597-6.866 11.216-5.753 17.707l2.658 15.494c.475 2.767-1.234 4.345-1.991 4.895-.756.55-2.785 1.688-5.271.381l-13.915-7.315c-5.83-3.065-12.789-3.065-18.618 0l-13.915 7.315c-2.484 1.306-4.514.168-5.271-.381-.756-.55-2.465-2.127-1.991-4.895l2.657-15.494c1.113-6.491-1.038-13.11-5.753-17.707l-11.255-10.973c-2.011-1.96-1.555-4.241-1.267-5.13.289-.89 1.262-3.002 4.041-3.406l15.556-2.26c6.517-.947 12.147-5.038 15.063-10.943l6.957-14.097c1.243-2.518 3.552-2.79 4.488-2.79s3.245.272 4.488 2.79l6.957 14.097c2.915 5.906 8.545 9.996 15.062 10.943l15.557 2.26c2.779.404 3.751 2.516 4.04 3.406s.744 3.17-1.266 5.13z" fill="#000000" data-original="#000000" style="" class=""/><path d="m505.949 106.687c5.492-5.359 7.43-13.219 5.058-20.514-2.371-7.29-8.559-12.504-16.192-13.612l-.72-.1c-4.101-.572-7.891 2.293-8.462 6.395-.57 4.103 2.293 7.891 6.396 8.462l.675.094c2.778.404 3.75 2.513 4.039 3.401.29.89.746 3.173-1.265 5.135l-11.265 10.975c-4.714 4.601-6.861 11.222-5.744 17.702l2.651 15.498c.477 2.766-1.231 4.344-1.988 4.894-.757.551-2.785 1.691-5.268.386l-13.926-7.328c-5.828-3.05-12.783-3.048-18.608.007l-13.919 7.32c-2.48 1.304-4.507.168-5.264-.382-.758-.551-2.469-2.13-1.995-4.9l2.663-15.503c1.104-6.499-1.051-13.117-5.76-17.699l-11.256-10.966c-2.012-1.963-1.556-4.245-1.266-5.135.289-.889 1.261-3.002 4.037-3.405l15.558-2.26c6.522-.946 12.156-5.037 15.071-10.947l6.947-14.094c1.244-2.518 3.555-2.79 4.491-2.79s3.247.272 4.491 2.789l5.33 10.79c1.834 3.713 6.333 5.237 10.046 3.403 3.714-1.834 5.237-6.332 3.402-10.046l-5.33-10.791c-3.397-6.875-10.271-11.145-17.94-11.145-7.668 0-14.542 4.271-17.941 11.152l-6.949 14.098c-.729 1.476-2.138 2.499-3.772 2.736l-15.561 2.26c-7.587 1.103-13.773 6.318-16.145 13.611-2.372 7.294-.435 15.152 5.06 20.513l11.264 10.974c1.177 1.145 1.713 2.803 1.438 4.425l-2.661 15.494c-1.295 7.563 1.756 15.063 7.964 19.572 6.203 4.505 14.271 5.09 21.06 1.522l13.914-7.317c1.46-.767 3.209-.765 4.663-.004l13.913 7.322c2.952 1.552 6.146 2.318 9.324 2.318 4.133 0 8.239-1.297 11.748-3.848 6.205-4.512 9.251-12.011 7.95-19.563l-2.651-15.499c-.28-1.622.258-3.278 1.433-4.424z" fill="#000000" data-original="#000000" style="" class=""/></g></g></g></svg>
