<svg width="449" height="389" viewBox="0 0 449 389" fill="none" xmlns="http://www.w3.org/2000/svg">
<circle cx="256.016" cy="196.767" r="192.233" fill="#F8F9FF"/>
<path d="M73.1519 175.755C73.1156 175.755 69.4221 175.79 64.2679 174.815C59.5117 173.915 52.4967 171.95 46.0938 167.689C39.7535 163.471 31.5322 161.995 25.7517 161.498C19.4821 160.96 14.6573 161.427 14.6088 161.433L14.5684 161.035C14.6169 161.031 19.4781 160.558 25.784 161.099C31.611 161.599 39.9031 163.091 46.314 167.356C52.6583 171.576 59.6128 173.527 64.3306 174.419C69.4484 175.387 73.1095 175.355 73.1459 175.355L73.1519 175.755Z" fill="#FFBA55"/>
<path d="M77.7448 178.123C73.52 182.9 55.5701 185.852 44.9161 180.279C39.0285 177.199 34.3592 173.602 30.2394 170.425C24.869 166.286 20.232 162.713 14.5444 161.427L14.0474 161.314L14.4878 161.057C14.5707 161.009 22.9071 156.234 34.8037 155.438C41.7925 154.971 48.6277 155.943 55.1175 158.331C63.2277 161.316 70.8186 166.529 77.6781 173.826L77.5326 173.964L77.6781 173.826C78.8863 175.113 78.9914 176.498 77.9791 177.832C77.9084 177.933 77.8296 178.028 77.7448 178.123ZM15.1445 161.16C20.6846 162.555 25.2388 166.066 30.4839 170.108C34.5915 173.272 39.2467 176.862 45.102 179.923C49.9128 182.439 56.8268 183.429 64.0682 182.637C70.2003 181.967 75.4899 180.065 77.4457 177.852C77.5225 177.765 77.5932 177.679 77.6599 177.592C78.5489 176.417 78.458 175.244 77.3851 174.104C61.9568 157.692 45.7364 155.112 34.8461 155.838C24.6084 156.524 17.0316 160.173 15.1445 161.16Z" fill="#FFBA55"/>
<path d="M29.4661 156.198L29.1353 156.423L33.2953 162.549L33.6262 162.324L29.4661 156.198Z" fill="#FFBA55"/>
<path d="M38.3456 163.663L30.8481 170.589L31.1195 170.884L38.617 163.957L38.3456 163.663Z" fill="#FFBA55"/>
<path d="M45.541 156.032L45.1421 156.062L45.9974 167.536L46.3964 167.506L45.541 156.032Z" fill="#FFBA55"/>
<path d="M71.2026 159.245C71.1542 159.229 66.3394 157.51 60.2072 153.298C54.5499 149.412 46.5771 142.543 40.7178 131.891C33.927 119.544 26.5422 111.757 21.5415 107.399C16.1246 102.678 12.2635 100.854 12.2251 100.836L12.3867 100.486C12.4251 100.504 16.3246 102.344 21.7799 107.096C26.8068 111.476 34.2321 119.299 41.0552 131.707C46.8762 142.292 54.8025 149.121 60.4254 152.983C66.5151 157.167 71.2835 158.867 71.3299 158.885L71.2026 159.245Z" fill="#FFBA55"/>
<path d="M85.8895 158.277L84.8045 158.475C84.7701 158.481 81.2121 159.12 75.7366 159.023C70.6854 158.934 62.9147 158.184 54.5843 155.116C45.2194 151.669 37.0688 146.057 30.3609 138.436C21.982 128.918 15.8458 116.222 12.1201 100.702L12.0776 100.526L12.2494 100.472C12.312 100.451 18.6017 98.5305 26.821 100.508C31.6459 101.669 36.1859 103.925 40.3157 107.213C45.47 111.318 49.9958 117.055 53.762 124.261C62.25 140.497 70.2551 148.838 75.4739 152.975C81.107 157.44 84.7661 158.089 84.8025 158.095L85.8895 158.277ZM12.5363 100.793C20.9556 135.646 40.1056 149.372 54.6995 154.75C62.9794 157.802 70.7036 158.548 75.7265 158.639C79.5452 158.707 82.4203 158.416 83.8104 158.234C82.3698 157.779 79.3351 156.53 75.2355 153.278C69.9864 149.117 61.9408 140.737 53.4225 124.441C44.9527 108.24 34.2321 102.688 26.7321 100.884C19.3675 99.1128 13.593 100.504 12.5363 100.793Z" fill="#FFBA55"/>
<path d="M28.0329 135.14L28.0161 135.524L43.4048 136.196L43.4215 135.813L28.0329 135.14Z" fill="#FFBA55"/>
<path d="M38.7174 106.101H38.3335V127.733H38.7174V106.101Z" fill="#FFBA55"/>
<path d="M16.2056 113.39L16.1855 113.773L28.6485 114.425L28.6686 114.042L16.2056 113.39Z" fill="#FFBA55"/>
<path d="M326.859 82.3783L321.03 72.8281C320.551 72.0455 320.8 71.0223 321.582 70.5431C322.363 70.0639 323.386 70.3126 323.865 71.0951L327.986 77.8489L338.946 71.358C339.736 70.8909 340.754 71.1518 341.221 71.9424C341.687 72.733 341.427 73.7522 340.637 74.2193L326.859 82.3783Z" fill="#9AC2FF"/>
<path d="M330.772 97.1031C319.213 97.1031 309.81 87.6923 309.81 76.1241C309.81 64.5558 319.213 55.145 330.772 55.145C342.332 55.145 351.735 64.5558 351.735 76.1241C351.737 87.6903 342.332 97.1031 330.772 97.1031ZM330.772 58.1417C320.864 58.1417 312.804 66.2078 312.804 76.1241C312.804 86.0403 320.864 94.1064 330.772 94.1064C340.681 94.1064 348.741 86.0403 348.741 76.1241C348.741 66.2078 340.681 58.1417 330.772 58.1417Z" fill="#9AC2FF"/>
<path d="M196.287 19.1347L192.191 12.4237C191.856 11.8737 192.03 11.1544 192.579 10.8187C193.129 10.483 193.848 10.6568 194.183 11.2068L197.079 15.9516L204.778 11.3912C205.332 11.063 206.047 11.2458 206.375 11.8018C206.703 12.3563 206.521 13.0727 205.965 13.4009L196.287 19.1347Z" fill="#9AC2FF"/>
<path d="M199.036 29.4784C190.915 29.4784 184.309 22.8664 184.309 14.7392C184.309 6.61203 190.915 0 199.036 0C207.157 0 213.764 6.61203 213.764 14.7392C213.764 22.8664 207.157 29.4784 199.036 29.4784ZM199.036 2.1056C192.076 2.1056 186.413 7.77349 186.413 14.7392C186.413 21.7049 192.076 27.3728 199.036 27.3728C205.998 27.3728 211.66 21.7049 211.66 14.7392C211.66 7.77199 205.996 2.1056 199.036 2.1056Z" fill="#9AC2FF"/>
<path d="M136.878 51.4405L133.227 45.4572C132.928 44.9658 133.082 44.3268 133.573 44.0255C134.064 43.7263 134.702 43.88 135.003 44.3713L137.585 48.6015L144.449 44.5351C144.944 44.2419 145.58 44.4057 145.873 44.9011C146.166 45.3965 146.003 46.0335 145.508 46.3267L136.878 51.4405Z" fill="#9AC2FF"/>
<path d="M139.331 60.6633C132.09 60.6633 126.2 54.769 126.2 47.5218C126.2 40.2747 132.09 34.3804 139.331 34.3804C146.571 34.3804 152.462 40.2767 152.462 47.5218C152.462 54.767 146.571 60.6633 139.331 60.6633ZM139.331 36.2569C133.124 36.2569 128.075 41.31 128.075 47.5218C128.075 53.7337 133.124 58.7868 139.331 58.7868C145.538 58.7868 150.587 53.7337 150.587 47.5218C150.585 41.31 145.536 36.2569 139.331 36.2569Z" fill="#9AC2FF"/>
<path d="M278.173 34.862L275.292 30.1405C275.055 29.7522 275.176 29.2467 275.564 29.0122C275.952 28.7756 276.457 28.8969 276.692 29.2851L278.728 32.6236L284.145 29.4145C284.535 29.184 285.038 29.3134 285.271 29.7037C285.501 30.094 285.372 30.5975 284.982 30.828L278.173 34.862Z" fill="#9AC2FF"/>
<path d="M280.106 42.1397C274.392 42.1397 269.743 37.4869 269.743 31.7684C269.743 26.05 274.392 21.3972 280.106 21.3972C285.82 21.3972 290.469 26.05 290.469 31.7684C290.469 37.4869 285.82 42.1397 280.106 42.1397ZM280.106 22.8794C275.209 22.8794 271.224 26.8669 271.224 31.7684C271.224 36.6699 275.209 40.6575 280.106 40.6575C285.004 40.6575 288.988 36.6699 288.988 31.7684C288.988 26.8669 285.004 22.8794 280.106 22.8794Z" fill="#9AC2FF"/>
<path d="M160.362 313.543H188.944V226.665H160.362V313.543Z" fill="#8F8F8F"/>
<path d="M63.8081 268.514H285.5C292.433 268.514 298.053 262.889 298.053 255.951V106.837C298.053 99.8993 292.435 94.2739 285.5 94.2739H63.8081C56.8758 94.2739 51.2549 99.8973 51.2549 106.837V255.953C51.2549 262.891 56.8738 268.514 63.8081 268.514Z" fill="#9DC4FF"/>
<path d="M60.921 241.209L288.386 241.209V75.7287L60.921 75.7287L60.921 241.209Z" fill="white"/>
<path d="M60.9204 95.7159H288.385V75.7297H60.9204V95.7159Z" fill="url(#paint0_linear)"/>
<path d="M260.705 253.705C260.705 258.105 264.895 261.672 270.065 261.672C275.236 261.672 279.426 258.105 279.426 253.705C279.426 249.305 275.236 245.738 270.065 245.738C264.895 245.738 260.705 249.305 260.705 253.705Z" fill="#CCCCCC"/>
<path d="M238.942 310.264H110.361V316.822H238.942V310.264Z" fill="#CCCCCC"/>
<path d="M100.15 89.5H73.1344C71.6352 89.5 70.4209 88.2848 70.4209 86.7844V84.6612C70.4209 83.1608 71.6352 81.9456 73.1344 81.9456H100.152C101.651 81.9456 102.866 83.1608 102.866 84.6612V86.7844C102.864 88.2827 101.649 89.5 100.15 89.5Z" fill="#F5F7FF"/>
<path d="M172.321 120.943H77.5854V125.04H172.321V120.943Z" fill="#E6E6E6"/>
<path d="M185.882 128.322H77.585V132.418H185.882V128.322Z" fill="#E6E6E6"/>
<path d="M196.678 143.044H77.5854V147.141H196.678V143.044Z" fill="#E6E6E6"/>
<path d="M178.029 112.697H77.5854V116.794H178.029V112.697Z" fill="#1D73F8"/>
<path d="M165.914 150.423H77.5854V154.52H165.914V150.423Z" fill="#E6E6E6"/>
<path d="M133.593 166.456H77.5854V170.553H133.593V166.456Z" fill="#E6E6E6"/>
<path d="M178.209 173.835H77.5854V177.931H178.209V173.835Z" fill="#E6E6E6"/>
<path d="M149.185 191.465H77.5854V195.562H149.185V191.465Z" fill="#E6E6E6"/>
<path d="M165.015 198.844H77.5854V202.94H165.015V198.844Z" fill="#E6E6E6"/>
<path d="M173.291 216.476H77.5854V220.573H173.291V216.476Z" fill="#E6E6E6"/>
<path d="M127.897 223.855H77.5854V227.951H127.897V223.855Z" fill="#E6E6E6"/>
<path d="M74.7667 120.943H71.7744V132.418H74.7667V120.943Z" fill="#1D73F8"/>
<path d="M74.7667 143.044H71.7744V154.52H74.7667V143.044Z" fill="#1D73F8"/>
<path d="M74.7667 166.456H71.7744V177.931H74.7667V166.456Z" fill="#1D73F8"/>
<path d="M74.7667 191.465H71.7744V202.94H74.7667V191.465Z" fill="#1D73F8"/>
<path d="M74.7667 216.476H71.7744V227.951H74.7667V216.476Z" fill="#78C2FF"/>
<path d="M236.228 230.42H226.69C224.794 230.42 223.257 228.882 223.257 226.985V217.439C223.257 215.542 224.794 214.003 226.69 214.003H236.228C238.123 214.003 239.661 215.542 239.661 217.439V226.985C239.661 228.884 238.125 230.42 236.228 230.42Z" fill="#1D73F8"/>
<path d="M230.941 225.828L226.795 222.211C226.455 221.913 226.419 221.398 226.716 221.058C227.013 220.718 227.528 220.682 227.868 220.979L230.799 223.537L234.982 218.87C235.283 218.534 235.8 218.506 236.135 218.807C236.471 219.109 236.499 219.626 236.198 219.962L230.941 225.828Z" fill="#F3F3F3"/>
<path d="M235.932 205.42H226.989C224.928 205.42 223.251 203.741 223.251 201.679V192.729C223.251 190.667 224.928 188.988 226.989 188.988H235.932C237.993 188.988 239.67 190.667 239.67 192.729V201.679C239.67 203.741 237.993 205.42 235.932 205.42ZM226.989 190.03C225.502 190.03 224.292 191.241 224.292 192.729V201.679C224.292 203.167 225.502 204.378 226.989 204.378H235.932C237.419 204.378 238.629 203.167 238.629 201.679V192.729C238.629 191.241 237.419 190.03 235.932 190.03H226.989Z" fill="#78C2FF"/>
<path d="M260.63 180.41H251.687C249.626 180.41 247.949 178.732 247.949 176.67V167.72C247.949 165.657 249.626 163.979 251.687 163.979H260.63C262.691 163.979 264.368 165.657 264.368 167.72V176.67C264.366 178.732 262.691 180.41 260.63 180.41ZM251.685 165.02C250.198 165.02 248.988 166.232 248.988 167.72V176.67C248.988 178.158 250.198 179.369 251.685 179.369H260.628C262.115 179.369 263.325 178.158 263.325 176.67V167.72C263.325 166.232 262.115 165.02 260.628 165.02H251.685Z" fill="#78C2FF"/>
<path d="M260.63 230.428H251.687C249.626 230.428 247.949 228.75 247.949 226.688V217.738C247.949 215.675 249.626 213.997 251.687 213.997H260.63C262.691 213.997 264.368 215.675 264.368 217.738V226.688C264.366 228.75 262.691 230.428 260.63 230.428ZM251.685 215.038C250.198 215.038 248.988 216.25 248.988 217.738V226.688C248.988 228.176 250.198 229.387 251.685 229.387H260.628C262.115 229.387 263.325 228.176 263.325 226.688V217.738C263.325 216.25 262.115 215.038 260.628 215.038H251.685Z" fill="#78C2FF"/>
<path d="M260.927 205.411H251.388C249.493 205.411 247.956 203.873 247.956 201.976V192.43C247.956 190.533 249.493 188.994 251.388 188.994H260.927C262.822 188.994 264.36 190.533 264.36 192.43V201.976C264.36 203.873 262.822 205.411 260.927 205.411Z" fill="#1D73F8"/>
<path d="M255.637 200.819L251.491 197.202C251.152 196.904 251.116 196.389 251.413 196.049C251.71 195.709 252.225 195.673 252.564 195.97L255.496 198.528L259.678 193.861C259.979 193.526 260.497 193.497 260.832 193.799C261.167 194.1 261.196 194.618 260.895 194.953L255.637 200.819Z" fill="#F3F3F3"/>
<path d="M236.228 180.402H226.69C224.794 180.402 223.257 178.863 223.257 176.967V167.42C223.257 165.524 224.794 163.985 226.69 163.985H236.228C238.123 163.985 239.661 165.524 239.661 167.42V176.967C239.661 178.863 238.125 180.402 236.228 180.402Z" fill="#1D73F8"/>
<path d="M230.941 175.81L226.795 172.193C226.455 171.895 226.419 171.38 226.716 171.04C227.013 170.7 227.528 170.664 227.868 170.961L230.799 173.519L234.982 168.852C235.283 168.517 235.8 168.488 236.135 168.79C236.471 169.091 236.499 169.608 236.198 169.944L230.941 175.81Z" fill="#F3F3F3"/>
<path d="M267.976 130.37C267.976 136.297 265.847 141.724 262.313 145.93C257.757 151.349 251.053 154.556 243.81 154.556C236.138 154.556 229.155 150.955 224.684 145.158C221.522 141.069 219.641 135.939 219.641 130.37C219.641 117.012 230.46 106.182 243.81 106.182C257.157 106.184 267.976 117.012 267.976 130.37Z" fill="#EEF0F7"/>
<path d="M261.094 143.34C261.005 143.251 260.805 143.178 260.688 143.101C260.68 143.095 260.674 143.091 260.666 143.087L260.664 143.089C259.603 142.503 256.493 140.956 250.361 139.194C250.359 139.194 250.357 139.192 250.357 139.192C249.244 138.853 248.404 138.632 248.115 138.557L247.595 137.73C247.51 136.895 247.529 135.652 247.553 134.819C248.416 133.816 249.196 132.249 249.634 129.804C249.773 129.909 249.882 129.679 249.882 129.679C249.806 129.541 251.048 126.502 250.824 125.816C250.697 125.428 250.438 125.477 250.236 125.59C250.266 125.412 250.297 125.228 250.329 125.032C250.329 125.032 250.822 120.373 248.466 117.777C248.224 117.542 247.355 117.483 247.355 117.483C243.571 116.325 241.3 116.842 239.879 117.451C237.772 119.178 237.612 122.12 237.707 123.738C237.75 124.122 237.794 124.506 237.836 124.882C237.836 124.89 237.838 124.894 237.838 124.894C237.857 125.044 237.875 125.19 237.891 125.335C237.693 125.214 237.436 125.151 237.293 125.535C237.04 126.211 237.962 129.246 238.075 129.432C238.075 129.432 238.273 129.743 238.428 129.602C238.43 129.602 238.43 129.596 238.43 129.596C238.865 132.261 239.649 133.909 240.471 134.92C240.411 136.002 240.255 137.273 240.146 138.086L239.21 139.065C239.162 139.081 239.111 139.097 239.061 139.116C239.061 139.111 239.061 139.109 239.061 139.109C228.482 141.934 225.491 143.902 225.491 143.902C225.227 144.066 224.954 144.504 224.681 145.155C229.104 150.888 236.052 154.554 243.807 154.554C251.038 154.554 257.744 151.357 262.31 145.928C261.856 144.818 261.528 143.772 261.094 143.34Z" fill="#1D73F8"/>
<path d="M312.649 180.095C316.523 178.241 320.376 190.579 320.376 190.579C326.956 199.282 336.156 187.704 335.256 200.716C333.682 223.485 361.442 207.876 348.636 231.646C335.83 255.415 359.944 245.086 351.986 264.252C344.027 283.417 354.342 306.278 342.368 296.884C342.368 296.884 331.824 273.743 320.949 266.583C310.075 259.423 327.463 250.928 324.061 241.204C319.119 227.08 307.212 227.634 315.797 212.456C324.382 197.278 299.486 186.396 312.649 180.095Z" fill="url(#paint1_linear)"/>
<path d="M346.157 288.175C340.966 284.521 334.891 259.061 334.529 243.898C334.343 236.131 332.05 232.893 330.025 230.038C328.09 227.308 326.419 224.953 327.393 219.54C329.254 209.197 324.362 204.732 324.312 204.688L324.877 204.042C325.095 204.233 330.189 208.837 328.237 219.691C327.328 224.749 328.827 226.864 330.724 229.541C332.717 232.349 335.196 235.846 335.388 243.877C335.776 260.151 341.987 284.189 346.652 287.473L346.157 288.175Z" fill="white"/>
<path d="M348.1 290.062C347.429 290.062 346.702 289.985 345.906 289.823C343.906 289.419 342.594 288.361 342.006 286.683C340.606 282.677 343.849 276.172 346.48 273.036C346.522 272.983 350.927 267.596 350.458 260.129C350.379 258.877 350.25 257.719 350.135 256.697C349.803 253.743 349.565 251.608 350.834 250.182C351.951 248.927 354.109 248.381 358.049 248.362C364.957 248.33 367.689 245.467 369.883 243.168C370.814 242.191 371.695 241.269 372.764 240.685C376.207 238.804 379.854 238.527 381.434 240.027C382.186 240.739 382.82 242.136 381.575 244.739C380.438 247.117 378.963 248.623 377.779 249.834C376.185 251.462 375.132 252.538 375.68 254.681C375.809 255.185 375.956 255.692 376.106 256.202C377.171 259.848 378.379 263.979 372.144 266.783C370.82 267.378 369.616 267.851 368.551 268.27C364.199 269.978 361.573 271.01 358.609 277.274C358.035 278.487 357.528 279.636 357.039 280.748C354.699 286.052 352.931 290.062 348.1 290.062ZM373.174 241.439C372.223 241.958 371.425 242.794 370.501 243.762C368.194 246.181 365.323 249.189 358.049 249.224C354.428 249.24 352.4 249.713 351.472 250.754C350.458 251.895 350.68 253.87 350.985 256.604C351.101 257.636 351.232 258.806 351.313 260.078C351.806 267.898 347.326 273.361 347.136 273.59C344.532 276.694 341.58 282.871 342.815 286.402C343.293 287.775 344.391 288.642 346.074 288.984C351.945 290.171 353.566 286.495 356.251 280.404C356.744 279.288 357.253 278.133 357.831 276.91C360.942 270.338 363.844 269.198 368.236 267.473C369.291 267.058 370.485 266.589 371.79 266.003C377.342 263.506 376.34 260.076 375.28 256.447C375.128 255.927 374.976 255.409 374.845 254.898C374.176 252.285 375.494 250.938 377.163 249.236C378.363 248.011 379.723 246.621 380.797 244.371C381.361 243.192 381.826 241.588 380.84 240.654C379.547 239.421 376.249 239.758 373.174 241.439Z" fill="url(#paint2_linear)"/>
<path d="M345.996 295.022L345.14 294.977C345.182 294.17 346.263 275.171 353.886 269.61C362.249 263.51 364.886 256.954 366.142 252.554C367.621 247.368 375.154 245.982 375.473 245.926L375.622 246.771C375.55 246.783 368.3 248.122 366.969 252.789C365.678 257.312 362.97 264.048 354.393 270.304C347.095 275.626 346.006 294.828 345.996 295.022Z" fill="url(#paint3_linear)"/>
<path d="M363.426 199.268C358.007 197.41 359.132 207.86 356.843 215.592C354.554 223.325 331.375 218.965 341.104 238.329C350.832 257.692 328.799 244.803 335.38 261.7C341.96 278.596 335.952 296.667 343.106 292.071C350.261 287.475 347.125 266.197 354.566 263.669C362.006 261.142 363.22 258.191 355.853 251.318C348.487 244.445 375.157 237.621 368.574 223.743C361.996 209.866 369.685 201.416 363.426 199.268Z" fill="url(#paint4_linear)"/>
<path d="M346.426 291.263C345.745 288.371 339.926 262.915 345.355 259.837C350.14 257.126 350.023 246.577 349.275 236.616C348.614 227.798 359.929 223.677 360.412 223.507L360.699 224.316C360.588 224.356 349.52 228.39 350.132 236.551C350.898 246.781 350.98 257.635 345.778 260.584C341.654 262.921 345.45 283.378 347.261 291.064L346.426 291.263Z" fill="white"/>
<path d="M358.745 282.198L351.01 311.568H333.723L325.987 282.198H358.745Z" fill="url(#paint5_linear)"/>
<path d="M358.745 282.198C358.745 282.198 341.716 285.398 341.716 311.568H333.723L325.987 282.198H358.745Z" fill="url(#paint6_linear)"/>
<path d="M88.1543 220.112C88.1543 220.112 88.914 233.905 86.3844 235.925C85.2166 236.859 82.4606 237.152 79.4824 237.156C78.5025 237.158 77.4983 237.126 76.5184 237.077C76.5164 237.077 76.5144 237.077 76.5144 237.077C72.6027 236.881 69.0891 236.384 69.0891 236.384C69.0891 236.384 58.9464 236.897 59.4414 230.6C59.4414 230.6 60.6234 228.694 62.1367 228.259C63.5349 227.856 69.9236 228.961 71.0328 229.009C72.2532 229.062 80.9109 230.989 81.2827 230.851C81.6545 230.714 82.6485 227.317 82.7091 225.04C82.798 221.75 82.7839 218.721 82.7839 218.721L88.1543 220.112Z" fill="#3C4169"/>
<path d="M34.3974 351.08C34.3974 351.08 33.5448 353.134 32.8275 353.949C32.1102 354.764 29.3604 356.22 29.3462 358.638C29.3301 361.261 33.9812 360.533 35.7996 360.438C37.618 360.343 37.7554 358.941 38.5212 357.455C39.2869 355.971 40.0588 356.222 40.2022 355.025C40.3457 353.828 39.6163 351.146 39.6163 351.146L34.3974 351.08Z" fill="#252840"/>
<path d="M70.8084 351.551C70.8084 351.551 73.342 354.214 75.9141 354.772C78.4861 355.33 80.2864 356.042 80.3046 357.568C80.3248 359.097 72.9016 360.104 69.9598 358.563C65.5673 356.264 65.1207 356.958 64.6338 355.809C64.1469 354.661 65.2197 351.587 65.1874 351.221C65.147 350.768 70.8084 351.551 70.8084 351.551Z" fill="#252840"/>
<path d="M70.5075 274.663C70.5075 274.663 73.1684 294.009 74.2555 300.55C75.5263 308.198 75.9567 314.515 76.3123 318.472C76.7588 323.45 72.0936 350.228 72.4067 351.684C72.7179 353.14 64.0096 351.08 64.0096 351.08C64.0096 351.08 66.7454 319.216 65.4179 313.914C64.1814 308.978 59.7222 287.279 58.5928 288.628C57.4653 289.977 50.3816 313.787 49.5471 317.679C48.7126 321.572 40.657 352.052 40.657 352.052C40.657 352.052 34.636 353.346 33.1045 352.127C33.1045 352.127 38.3577 324.125 38.8911 316.826C39.0932 314.043 40.7419 283.662 45.4415 271.355C47.9226 264.85 70.5075 274.663 70.5075 274.663Z" fill="#292C47"/>
<path d="M0.997005 221.127L1.48596 213.862C1.58698 212.368 2.87806 211.239 4.37119 211.338L19.947 212.386C21.4401 212.487 22.5675 213.779 22.4685 215.273L21.9796 222.541C21.8786 224.035 20.5875 225.163 19.0944 225.064L3.51855 224.017C2.02543 223.914 0.895981 222.621 0.997005 221.127Z" fill="#C4B4AF"/>
<path d="M113.509 231.859L114.421 218.275L12.5719 211.42L11.6591 225.003L113.509 231.859Z" fill="#EB4747"/>
<path d="M12.5533 211.444L12.249 215.971L114.099 222.827L114.403 218.3L12.5533 211.444Z" fill="#6880EB"/>
<path d="M113.822 227.342L114.126 222.815L12.2764 215.97L11.9726 220.497L113.822 227.342Z" fill="#4A64E0"/>
<path d="M113.511 231.863L113.815 227.336L11.9659 220.48L11.6617 225.007L113.511 231.863Z" fill="#4860CF"/>
<path d="M113.503 231.87L114.416 218.286L129.16 224.706L132.952 226.356L128.974 227.485L113.503 231.87Z" fill="#EDDAD3"/>
<path d="M114.111 222.814C112.899 222.733 111.986 221.653 112.07 220.401C112.155 219.152 113.204 218.203 114.416 218.284L114.111 222.814Z" fill="#DECCC6"/>
<path d="M113.808 227.343C112.596 227.262 111.683 226.182 111.768 224.931C111.853 223.681 112.901 222.733 114.113 222.813L113.808 227.343Z" fill="#E3D1CA"/>
<path d="M113.503 231.87C112.291 231.789 111.378 230.71 111.462 229.458C111.547 228.208 112.596 227.26 113.808 227.341L113.503 231.87Z" fill="#EDDAD3"/>
<path d="M9.04837 211.204L8.74414 215.731L15.0033 216.152L15.3075 211.625L9.04837 211.204Z" fill="#B39696"/>
<path d="M14.7187 220.668L15.0229 216.141L8.76379 215.72L8.45957 220.247L14.7187 220.668Z" fill="#DBB8B8"/>
<path d="M14.4155 225.197L14.7197 220.669L8.46059 220.248L8.15636 224.775L14.4155 225.197Z" fill="#F2CBCB"/>
<path d="M114.111 222.814L132.952 226.356L114.416 218.286L114.111 222.814Z" fill="#DECCC6"/>
<path d="M113.808 227.343L132.952 226.356L114.111 222.813L113.808 227.343Z" fill="#E3D1CA"/>
<path d="M113.808 227.343L132.952 226.356L113.503 231.87L113.808 227.343Z" fill="#EDDAD3"/>
<path d="M128.974 227.484L129.16 224.706L132.952 226.356L128.974 227.484Z" fill="#323438"/>
<path d="M83.8263 215.574C83.8263 215.574 83.297 217.92 83.8061 218.571C84.3133 219.222 84.5517 218.387 84.5517 218.387C84.5517 218.387 84.3011 219.208 84.9437 219.485C85.5862 219.762 85.8104 218.767 85.8104 218.767C85.8104 218.767 85.7902 219.443 86.5136 219.479C87.2369 219.515 87.2349 218.646 87.2349 218.646C87.2349 218.646 87.74 219.621 88.3259 218.945C89.3159 217.805 88.922 216.078 88.922 216.078C88.922 216.078 88.7866 215.671 88.0895 215.684C88.0895 215.684 87.8269 214.66 86.7035 215.077C86.7035 215.077 85.8003 214.256 85.2487 215.083C85.2487 215.083 84.2365 214.266 83.8263 215.574Z" fill="#EFAA88"/>
<path d="M35.5026 274.342C35.5026 274.342 38.8061 275.347 40.1901 275.092C41.5761 274.837 40.875 257.848 40.9296 254.313C40.972 251.446 42.5399 243.875 42.5399 243.875C42.5399 243.875 42.5399 243.879 42.5419 243.888C42.5439 243.89 42.5439 243.894 42.5439 243.896C42.5439 243.9 42.5459 243.904 42.5459 243.908C42.7015 244.476 44.817 252.332 44.8897 256.107C44.9665 260.026 44.3805 275.011 44.3805 275.011L50.2116 275.579L66.9715 275.99L70.4669 275.577C70.4669 275.577 70.0486 269.17 69.8931 266.124C69.7961 264.189 69.4203 260.725 69.5173 257.353C69.5173 257.353 69.4566 253.796 69.8082 252.265C69.8466 245.505 70.2547 238.81 70.2547 238.81C70.481 235.745 70.6386 232.879 70.7295 230.206C69.99 229.816 69.1031 229.357 68.3919 229.019C66.1916 227.972 63.1265 226.56 61.1606 225.657C60.0089 225.127 58.8815 224.741 58.8815 224.741C58.8815 224.741 51.0198 223.986 50.3834 224.027C50.1813 224.039 49.1994 224.383 47.9103 224.874C45.122 225.934 39.7496 228.089 38.8929 228.704C37.6382 229.604 34.9853 250.971 34.8641 252.467C34.6499 255.159 35.5026 274.342 35.5026 274.342Z" fill="#FFAD55"/>
<path d="M69.9619 272.9C69.9619 272.9 58.4574 273.881 48.3833 272.9V276.208C48.3833 276.208 63.5146 278.394 70.4671 275.577L69.9619 272.9Z" fill="#1D2033"/>
<path d="M60.1504 225.22C60.1504 225.22 62.0214 229.62 63.4256 239.453C63.9651 243.23 64.9652 249.588 65.6905 256.077V256.079C66.2643 261.194 67.5716 266.444 67.9878 270.359C68.4182 274.415 69.7153 286.365 69.7153 286.365L72.8612 284.38C73.3098 283.963 73.9401 283.423 73.7583 282.841C72.8935 280.044 71.2367 270.801 70.2588 262.745C70.2588 262.739 70.2568 262.735 70.2568 262.729C70.2103 262.341 70.1639 261.957 70.1214 261.575C70.1194 261.556 70.1174 261.534 70.1154 261.514C69.9295 259.902 69.778 258.36 69.6688 256.944C69.584 255.86 69.6608 254.801 69.8103 253.765C70.2487 246.534 70.4669 238.911 70.4669 238.911C70.6973 235.789 71.2711 231.751 71.358 229.033C70.2629 228.886 69.4506 228.74 68.5697 228.475C68.5677 228.475 62.3669 226.156 60.1504 225.22Z" fill="#3C4169"/>
<path d="M56.1256 204.451C56.1256 204.451 61.9628 205.436 60.9727 214.582C59.9827 223.728 54.8305 222.921 54.485 222.907C54.1395 222.894 49.3025 223.018 49.0479 211.836C49.0479 211.836 48.9731 203.569 56.1256 204.451Z" fill="#EEA987"/>
<path d="M58.6818 220.255C58.6818 220.255 58.6818 224.023 58.8353 224.837C59.001 225.715 54.1478 228.249 51.0161 225.296C51.0161 225.296 51.6505 221.182 51.4525 219.73C51.2565 218.278 58.6818 220.255 58.6818 220.255Z" fill="#EEA987"/>
<path d="M60.9947 212.452C60.9947 212.452 61.6433 211.775 61.8696 212.47C62.0979 213.166 61.0493 216.106 60.9139 216.387C60.9139 216.387 60.7947 216.654 60.6412 216.504C60.4896 216.355 60.9947 212.452 60.9947 212.452Z" fill="#EEA987"/>
<path d="M49.1146 211.751C49.1146 211.751 48.4943 211.047 48.2397 211.732C47.9831 212.418 48.9166 215.495 49.0338 215.686C49.0338 215.686 49.2338 216.001 49.3934 215.857C49.551 215.716 49.1146 211.751 49.1146 211.751Z" fill="#EEA987"/>
<path d="M61.4638 211.219C61.2618 212.47 61.0718 213.401 61.0718 213.401L60.2232 214.511C60.2232 214.511 60.2738 212.056 60.1445 211.67C60.096 211.524 60.0374 211.265 59.9788 210.984C59.8818 210.521 59.7808 209.999 59.7121 209.826C59.603 209.547 54.7094 208.117 50.3512 210.125C50.3512 210.125 50.3876 210.503 50.3856 210.924C50.3836 211.413 50.331 211.963 50.1047 212.046C49.6865 212.2 49.8623 214.919 49.8623 214.919L49.1834 214.135C49.1834 214.135 48.9874 212.713 48.7935 211.081C48.7935 211.081 48.7935 211.077 48.7914 211.069C48.747 210.689 48.7025 210.297 48.6601 209.909C48.5631 208.265 48.7248 205.282 50.8624 203.531C52.305 202.912 54.6084 202.388 58.4473 203.563C58.4473 203.563 59.3282 203.622 59.5747 203.86C61.9629 206.493 61.4638 211.219 61.4638 211.219Z" fill="#D88A51"/>
<path d="M51.8545 221.685C51.8545 221.685 52.7859 222.979 54.9499 222.931C57.1138 222.882 58.0533 221.752 58.0533 221.752C58.0533 221.752 57.0289 223.897 54.9398 223.873C52.8506 223.851 51.8545 221.685 51.8545 221.685Z" fill="#C78D71"/>
<path d="M59.0619 227.699L56.8838 229.31C56.8838 229.31 58.7042 225.428 58.7426 223.875L59.0619 227.699Z" fill="#A09EA6"/>
<path d="M58.7422 223.875L60.2333 225.252L61.7911 229.905L59.0614 227.699L58.7422 223.875Z" fill="#EAE6F2"/>
<path d="M58.4715 225.262C58.4715 225.262 57.8694 227.377 56.8854 229.31C56.8854 229.31 54.6002 227.307 53.881 226.593C53.1617 225.879 58.4715 225.262 58.4715 225.262Z" fill="#EEA987"/>
<path d="M54.4931 227.07L56.8833 229.31C56.8833 229.31 54.0566 229.122 53.5293 228.651L54.4931 227.07Z" fill="#A09EA6"/>
<path d="M51.3215 222.943C51.3215 222.943 53.2349 226.055 54.4937 227.07L52.3722 230.594L48.9697 224.411L51.3215 222.943Z" fill="#EAE6F2"/>
<path d="M41.1682 254.473C40.9237 257.755 42.3118 275.909 40.9278 276.164C39.5437 276.419 34.4582 275.3 34.4582 275.3C34.4582 275.3 33.8197 255.723 34.0258 253.67C34.1753 252.176 36.5514 229.771 37.8061 228.872C38.5315 228.352 43.8999 226.447 46.5346 225.408C47.0154 225.218 48.5409 224.577 48.9733 224.413C49.533 225.036 54.4003 236.468 54.863 245.386C55.0044 248.101 54.3679 253.832 53.885 258.515C53.3698 263.512 52.798 267.41 52.3798 271.588C51.5555 279.82 50.9776 286.369 50.9776 286.369L42.7927 282.721C41.4672 282.058 39.6347 279.336 40.1317 277.941C42.0249 272.637 44.407 263.574 44.409 258.92C44.409 258.92 43.4958 247.523 42.7725 245.018C42.7684 245.016 41.4773 250.301 41.1682 254.473Z" fill="#3C4169"/>
<path d="M34.438 284.622C34.438 284.622 34.1612 283.945 34.1834 283.591C34.1834 283.591 34.2743 282.948 34.3127 282.487C34.3248 282.341 34.3309 282.212 34.3269 282.129C34.3087 281.783 34.1672 281.027 34.3572 280.182C34.5471 279.338 35.521 276.425 35.521 276.425L38.1496 276.815L40.4327 276.505C40.4327 276.505 42.136 281.478 42.0491 282.285C42.041 282.363 42.0289 282.44 42.0127 282.513C41.8733 283.188 41.4854 283.633 41.3722 283.981C41.3298 284.108 40.8227 285.342 40.4428 285.461C39.9155 285.627 39.4811 285.526 39.1881 285.285C39.1881 285.285 38.1395 285.562 37.4768 285.259C37.4768 285.259 36.517 285.546 35.7998 284.933C35.7978 284.931 34.7916 285.113 34.438 284.622Z" fill="#EFAA88"/>
<path d="M41.3846 263.651L41.2998 278.079C41.2998 278.079 38.4226 277.951 34.4564 276.485L34.1816 256.139L41.3846 263.651Z" fill="#3C4169"/>
<path d="M61.775 273.102H56.3521V277.136H61.775V273.102Z" fill="#3A4066"/>
<path d="M317.344 341.323C317.344 341.323 318.28 339.794 319.563 339.196C320.846 338.597 323.474 340.682 323.705 341.841L326.752 346.289L326.174 346.686L324.547 344.31C325.654 346.977 327.236 350.17 326.125 351.775C324.634 353.929 321.25 356.108 320.357 355.73C319.464 355.354 319.642 349.09 319.642 349.09C320.605 343.56 317.344 341.323 317.344 341.323Z" fill="#1D3B54"/>
<path d="M317.344 341.323C317.344 341.323 318.453 343.461 319.025 345.121C319.595 346.779 319.702 351.373 320.062 351.692C320.421 352.012 323.256 350.58 323.634 348.861C324.012 347.145 322.862 343.711 321.769 341.906C320.674 340.1 319.561 339.198 319.561 339.198C319.561 339.198 317.629 339.572 317.344 341.323Z" fill="#DE9673"/>
<path d="M306.401 301.066C306.401 301.066 308.136 310.289 308.136 312.495C308.136 314.701 308.737 318.308 310.139 320.981C311.541 323.655 317.695 341.918 318.229 344.045C318.762 346.172 319.221 348.182 319.221 348.182C319.221 348.182 322.292 346.779 322.292 344.773C322.292 342.767 319.621 326.194 319.154 322.921C318.687 319.647 314.814 302.872 314.814 302.872L306.401 301.066Z" fill="#DE9673"/>
<path d="M316.219 300.465C316.219 300.465 315.619 308.151 315.685 310.155C315.752 312.161 316.688 316.704 316.688 317.908C316.688 319.111 316.688 344.035 315.692 347.042C314.695 350.048 318.49 347.98 318.49 347.98C318.49 347.98 325.101 331.585 325.101 324.746C325.101 317.908 324.299 314.498 324.767 310.155C325.234 305.811 327.313 300.093 327.313 300.093L316.219 300.465Z" fill="#EEA886"/>
<path d="M326.218 263.473C326.218 263.473 329.772 267.831 330.707 273.644C331.643 279.458 329.6 290.422 328.875 293.594C328.238 296.377 327.02 305.286 326.953 306.222C326.953 306.222 315.004 307.577 305.924 304.703C305.924 304.703 305.094 292.262 304.558 286.982C304.025 281.702 306.631 263.876 306.631 263.876L326.218 263.473Z" fill="#EB4747"/>
<path d="M312.555 354.624C316.835 350.884 315.689 347.044 315.689 347.044C315.689 347.044 317.398 346.435 318.788 346.783C320.178 347.131 320.922 350.447 320.366 351.506L319.934 356.952L319.227 356.895L319.457 353.988C318.631 356.794 317.847 360.317 315.95 360.873C313.404 361.619 309.353 361.176 308.888 360.311C308.423 359.445 312.555 354.624 312.555 354.624Z" fill="#1D3B54"/>
<path d="M310.044 222.751C310.044 222.751 311.103 229.06 310.187 231.179C309.274 233.298 315.047 228.702 315.047 228.702C315.047 228.702 312.652 221.752 310.044 222.751Z" fill="#754836"/>
<path d="M312.18 205.225C312.18 205.225 321.45 203.102 322.603 213.014C323.757 222.927 319.587 224.172 322.411 230.89C325.234 237.607 315.517 228.7 315.517 228.7L312.18 205.225Z" fill="#754836"/>
<path d="M312.978 205.082C310.598 205.033 305.361 206.378 304.727 212.705C304.727 212.705 304.965 214.4 305.414 215.722C305.862 217.044 304.779 221.016 305.096 221.2C305.414 221.386 306.709 221.596 306.709 221.596C306.709 221.596 308.216 225.857 309.723 225.778C311.23 225.699 316.908 224.358 319.446 218.931C321.988 213.508 322.588 205.276 312.978 205.082Z" fill="#EEA886"/>
<path d="M338.904 283.565C338.904 283.565 338.682 279.749 337.674 279.158C336.666 278.568 337.248 279.747 337.248 279.747C337.248 279.747 337.815 282.515 337.941 283.637C337.947 283.69 338.904 283.565 338.904 283.565Z" fill="#1D3B54"/>
<path d="M334.233 274.977C334.233 274.977 333.952 276.688 333.433 278.336C332.916 279.984 332.439 280.509 332.647 281.456C332.805 282.17 333.611 282.703 333.813 282.475C334.017 282.246 334.116 279.474 335.264 279.486C336.411 279.498 334.92 282.92 335.603 282.669C336.286 282.418 338.917 280.977 338.751 279.579C338.585 278.182 337.533 277.173 337.601 275.084C337.662 273.19 337.074 272.399 337.074 272.399L334.233 274.977Z" fill="#EEA886"/>
<path d="M335.151 279.369C335.151 279.369 333.623 279.759 333.712 284.934L335.444 284.645C335.444 284.645 335.411 281.785 335.929 280.226C335.929 280.226 335.84 279.215 335.151 279.369Z" fill="#1D3B54"/>
<path d="M328.804 286.102L342.283 282.275L342.242 298.888L328.828 306.934L328.804 286.102Z" fill="#EDDAD3"/>
<path d="M328.828 306.934L330.517 307.245L343.564 299.127L343.402 282.351L342.283 282.275L328.828 306.934Z" fill="#EDDAD3"/>
<path d="M311.697 228.384C311.697 228.384 308.104 229.86 307.462 230.311C306.819 230.76 305.536 235.961 305.217 236.412C304.896 236.861 301.797 240.719 302.227 243.843C302.564 246.3 303.95 247.6 304.85 248.563C305.749 249.525 306.579 254.71 306.862 255.48C307.145 256.251 306.248 266.365 306.248 266.365C306.248 266.365 316.788 270.472 326.22 263.473C326.22 263.473 324.337 256.702 324.337 255.482C324.337 254.263 325.555 245.659 328.828 240.586C332.1 235.514 328.251 230.119 325.749 229.478C323.248 228.835 318.435 227.038 318.435 227.038L311.697 228.384Z" fill="#EB4747"/>
<path d="M323.197 228.71C323.197 228.71 328.473 228.384 331.12 231.466C333.766 234.548 333.621 238.208 334.296 239.797C334.969 241.386 336.51 248.225 336.846 249.331C337.183 250.439 337.51 256.663 337.991 261.672C338.472 266.68 338.375 276.032 338.375 276.032L333.326 275.116C333.326 275.116 333.122 266.201 332.994 261.033C332.867 255.864 328.665 246.731 327.077 242.733C325.49 238.739 319.168 231.219 323.197 228.71Z" fill="#EB4747"/>
<path d="M307.986 230.02C307.986 230.02 305.666 230.168 304.559 232.479C303.452 234.79 303.029 236.713 302.74 237.292C302.452 237.87 298.449 245.481 298.209 247.167C297.968 248.854 298.352 251.936 300.469 252.754C302.587 253.573 310.19 253.668 310.19 253.668C310.19 253.668 308.265 249.754 310.047 247.732C310.047 247.732 304.529 246.735 303.223 246.601C301.843 246.462 309.733 231.753 307.986 230.02Z" fill="#EB4747"/>
<path d="M320.623 236.556L310.343 260.584L297.527 254.542L307.005 231.466L320.623 236.556Z" fill="#1D3B54"/>
<path d="M314.728 248.36C314.728 248.36 316.12 248.73 316.561 248.795C317.001 248.86 316.455 249.677 315.916 249.701C315.375 249.725 314.728 248.36 314.728 248.36Z" fill="#EEA886"/>
<path d="M313.792 255.199C313.792 255.199 313.146 255.167 312.871 255.015C312.871 255.015 312.39 254.7 312.036 254.497C311.923 254.433 311.824 254.38 311.755 254.352C311.471 254.236 310.812 254.067 310.208 253.595C309.604 253.126 307.638 251.252 307.638 251.252L308.937 249.293L309.941 247.731C309.941 247.731 314.166 247.847 314.78 248.221C314.841 248.257 314.897 248.296 314.95 248.336C315.439 248.702 315.649 249.179 315.883 249.4C315.968 249.481 316.766 250.352 316.718 250.702C316.651 251.187 316.409 251.497 316.106 251.64C316.106 251.64 315.934 252.584 315.441 253.003C315.441 253.003 315.31 253.879 314.55 254.224C314.552 254.224 314.319 255.098 313.792 255.199Z" fill="#EEA886"/>
<path d="M310.044 247.73C310.044 247.73 303.785 246.609 302.055 246.427C302.055 246.427 301.938 244.229 302.253 242.367C302.569 240.505 304.098 238.005 304.098 238.005L300.898 240.939C300.898 240.939 298.267 245.987 298.206 247.165C298.148 248.346 297.835 250.166 299.392 252.012C300.95 253.858 308.301 253.013 308.301 253.013C308.301 253.013 307.687 250.751 310.044 247.73Z" fill="#EB4747"/>
<path d="M311.97 224.773C311.97 224.773 312.172 225.369 312.408 226.259C312.529 226.714 312.659 227.242 312.774 227.806C313.091 229.367 313.303 231.197 312.931 232.429C312.931 232.429 316.3 233.49 318.801 228.7C318.801 228.7 317.526 223.651 318.91 220.527C320.294 217.407 311.97 224.773 311.97 224.773Z" fill="#EEA886"/>
<path d="M304.726 212.705C304.726 212.705 308.658 215.229 312.501 215.651C316.344 216.074 318.482 221.891 318.482 221.891C318.482 221.891 324.525 212.475 319.66 206.687C314.794 200.9 303.688 205.381 304.726 212.705Z" fill="#754836"/>
<path d="M314.09 215.429C314.09 214.687 314.884 213.55 316.126 214.529C317.369 215.508 315.835 219.081 314.831 218.763C313.827 218.446 314.09 216.197 314.09 215.429Z" fill="#EEA886"/>
<path d="M311.485 228.473C311.485 228.473 309.901 233.152 313.606 233.128C317.312 233.104 318.924 230.188 319.983 227.602C319.983 227.602 318.274 226.773 317.482 226.652C316.684 226.532 311.485 228.473 311.485 228.473Z" fill="#EEA886"/>
<path d="M333.71 284.709L335.448 284.934L335.446 284.123L333.71 284.709Z" fill="#1D3B54"/>
<path d="M337.925 283.512L338.885 283.625C338.885 283.625 338.889 283.336 338.88 283.239C338.872 283.146 337.959 283.451 337.925 283.512Z" fill="#1D3B54"/>
<path d="M315.689 347.042C315.689 347.042 315.203 349.434 314.596 351.104C313.99 352.774 311.149 356.461 311.23 356.942C311.311 357.423 314.455 358.103 315.845 356.99C317.237 355.878 318.516 352.443 318.803 350.322C319.09 348.202 318.938 346.833 318.938 346.833C318.938 346.833 317.029 345.845 315.689 347.042Z" fill="#EEA886"/>
<path d="M312.109 225.258C312.23 225.713 312.408 226.259 312.547 226.801C315.59 224.745 317.047 222.304 317.047 222.304C315.319 223.956 312.109 225.258 312.109 225.258Z" fill="#A77860"/>
<path d="M188.336 284.268C188.336 284.268 187.598 287.168 187.497 287.605C187.396 288.041 182.854 286.838 182.854 286.838L182.858 283.292C182.858 283.294 187.802 283.791 188.336 284.268Z" fill="#5C544D"/>
<path d="M187.585 287.236C187.585 287.236 188.856 289.17 190.19 290.096C191.521 291.022 196.661 292.221 197.413 293.111C197.954 293.754 198.708 296.188 190.46 295.078C184.601 294.287 181.71 294.488 181.182 293.466C180.655 292.445 182.853 286.523 182.853 286.523C182.853 286.523 184.106 287.204 187.585 287.236Z" fill="#3C4145"/>
<path d="M189.299 366.799L205.759 198.933L203.684 198.73L187.224 366.599L189.299 366.799Z" fill="#F0C141"/>
<path d="M155.738 363.539L172.198 195.673L170.123 195.471L153.663 363.337L155.738 363.539Z" fill="#F0C141"/>
<path d="M170.865 198.398L170.664 200.475L204.225 203.732L204.426 201.655L170.865 198.398Z" fill="#F0C141"/>
<path d="M169.351 214.015L169.149 216.092L202.711 219.348L202.912 217.271L169.351 214.015Z" fill="#F0C141"/>
<path d="M167.842 229.633L167.641 231.71L201.202 234.97L201.403 232.893L167.842 229.633Z" fill="#F0C141"/>
<path d="M166.324 245.247L166.123 247.324L199.684 250.584L199.885 248.507L166.324 245.247Z" fill="#F0C141"/>
<path d="M164.809 260.866L164.608 262.943L198.169 266.203L198.37 264.126L164.809 260.866Z" fill="#F0C141"/>
<path d="M163.294 276.479L163.092 278.556L196.654 281.816L196.855 279.739L163.294 276.479Z" fill="#F0C141"/>
<path d="M161.776 292.104L161.575 294.181L195.136 297.437L195.338 295.36L161.776 292.104Z" fill="#F0C141"/>
<path d="M160.283 307.75L160.082 309.827L193.643 313.087L193.845 311.01L160.283 307.75Z" fill="#F0C141"/>
<path d="M158.747 323.339L158.546 325.416L192.107 328.672L192.308 326.595L158.747 323.339Z" fill="#F0C141"/>
<path d="M157.231 338.957L157.03 341.034L190.591 344.291L190.793 342.214L157.231 338.957Z" fill="#F0C141"/>
<path d="M155.716 354.574L155.515 356.651L189.076 359.908L189.278 357.831L155.716 354.574Z" fill="#F0C141"/>
<path d="M193.941 223.216C193.941 223.216 197.246 235.502 198.119 239.894C198.879 243.72 200.406 253.913 200.623 256.335C200.839 258.758 190.864 282.212 189.825 286.448L180.737 284.988C180.737 284.988 190.326 260.578 187.825 255.154C184.105 247.088 183.62 247.331 180.689 240.684C177.757 234.038 171.049 233.882 169.247 221.552C169.247 221.548 191.5 219.303 193.941 223.216Z" fill="#3C4145"/>
<path d="M177.777 163.522C177.777 163.522 183.812 161.266 186.594 165.864C189.376 170.462 189.11 179.666 186.067 180.797C183.024 181.929 178.456 181.337 176.898 178.459C175.34 175.582 173.934 171.422 174.002 168.644C174.071 165.866 176.193 164.325 177.777 163.522Z" fill="#EEA886"/>
<path d="M185.055 180.515C185.055 180.515 184.81 182.099 185.214 182.879C185.618 183.66 177.623 183.68 177.623 183.68C177.623 183.68 176.975 179.438 175.744 175.855C174.514 172.271 185.055 180.515 185.055 180.515Z" fill="#EEA886"/>
<path d="M175.744 175.853C175.744 175.853 176.296 176.763 178.548 176.411C180.801 176.057 183.549 173.058 184.489 172.728C185.428 172.399 185.438 171.847 185.438 171.847L186.026 172.708L187.024 172.771C187.024 172.771 186.113 170.088 187.487 168.994C188.861 167.9 186.061 160.311 178.837 162.839C178.837 162.839 173.289 164.369 173.491 167.526C173.695 170.684 174.503 174.279 175.744 175.853Z" fill="#3A3F47"/>
<path d="M185.289 170.698C185.162 170.169 183.816 168.656 183.301 170.276C182.786 171.895 184.079 174.075 184.8 173.889C185.523 173.703 185.608 172.041 185.289 170.698Z" fill="#EEA886"/>
<path d="M162.27 203.61C162.337 204.402 163.24 205.26 163.856 205.682C164.25 205.953 164.723 206.117 165.232 206.135L165.59 206.147L171.861 206.362C171.861 206.362 176.525 191.281 167.778 185.53C167.509 185.555 161.664 196.34 162.27 203.61Z" fill="#FFD255"/>
<path d="M181.182 293.465C181.71 294.488 184.601 294.288 190.46 295.076C192.061 295.293 193.323 295.375 194.313 295.361L194.655 291.833C192.939 291.236 190.947 290.622 190.19 290.092C188.858 289.166 187.585 287.233 187.585 287.233C184.106 287.202 182.853 286.519 182.853 286.519C182.853 286.519 180.655 292.443 181.182 293.465Z" fill="#3C4145"/>
<path d="M185.061 182.418C185.061 182.418 180.139 181.272 177.367 182.21L176.949 182.598C176.949 182.598 176.106 184.216 179.278 184.356C182.45 184.495 187.439 184.726 185.061 182.418Z" fill="#FFD255"/>
<path d="M165.828 297.83C165.828 297.83 165.09 300.73 164.989 301.167C164.888 301.603 160.346 300.4 160.346 300.4L160.35 296.854C160.35 296.854 165.296 297.351 165.828 297.83Z" fill="#5C544D"/>
<path d="M169.246 221.547C169.246 221.547 167.589 228.386 167.098 235.233C166.646 241.56 165.819 248.5 165.165 255.116C164.433 262.492 162.348 274.419 162.239 278.364C162.13 282.309 158.812 299.555 158.812 299.555L167.303 300.532C167.303 300.532 172.818 270.057 174.122 266.941C175.425 263.825 181.884 241.616 182.1 239.123C182.317 236.632 169.246 221.547 169.246 221.547Z" fill="#3C4145"/>
<path d="M165.08 300.796C165.08 300.796 166.351 302.73 167.685 303.656C169.016 304.582 174.156 305.781 174.908 306.673C175.449 307.316 176.203 309.75 167.955 308.64C162.096 307.85 159.205 308.05 158.677 307.029C158.15 306.007 160.348 300.085 160.348 300.085C160.348 300.085 161.601 300.766 165.08 300.796Z" fill="#3C4145"/>
<path d="M195.658 238.559C196.382 238.456 193.864 216.887 194.056 215.532C194.185 214.63 194.165 207.62 194.113 203.25L194.901 198.828C195.339 198.508 195.927 198.138 196.63 197.734C197.725 197.101 199.097 196.379 200.623 195.617C200.445 194.571 200.322 193.75 200.275 193.269C199.895 189.385 197.287 187.326 195.81 186.459C195.206 186.105 194.792 185.951 194.792 185.951C194.23 185.712 193.678 185.482 193.143 185.261C189.583 183.795 185.061 182.418 185.061 182.418H177.797C177.797 182.418 172.267 183.525 168.972 184.873C168.55 185.047 168.154 185.268 167.782 185.526L168.768 206.253C168.768 206.257 168.77 206.261 168.77 206.267C168.77 206.273 168.772 206.283 168.774 206.293C169.218 209.209 169.687 212.648 169.843 215.061C169.907 216.046 168.782 221.333 168.194 226.186L166.139 237.799C166.137 237.801 167.325 242.614 195.658 238.559Z" fill="#FFD255"/>
<path d="M232.744 171.341C232.744 171.341 232.315 171.873 232.014 172.015C232.014 172.015 231.446 172.229 231.052 172.405C230.927 172.462 230.82 172.514 230.753 172.555C230.479 172.725 229.923 173.181 229.147 173.406C228.371 173.63 224.862 174.429 224.862 174.429L224.045 172.344L223.459 170.662C223.459 170.662 226.708 166.45 227.407 166.159C227.476 166.13 227.545 166.104 227.612 166.086C228.228 165.896 228.765 166.013 229.101 165.951C229.224 165.928 230.46 165.789 230.729 166.048C231.101 166.405 231.214 166.806 231.149 167.154C231.149 167.154 231.846 167.888 231.897 168.567C231.897 168.567 232.562 169.224 232.384 170.088C232.386 170.088 232.986 170.83 232.744 171.341Z" fill="#EEA886"/>
<path d="M195.133 198.664C195.943 198.142 196.992 197.434 200.622 195.616C207.381 192.231 215.723 186.098 217.311 185.213C219.75 183.85 227.456 174.427 227.456 174.427C227.058 173.008 223.405 170.158 223.405 170.158C223.405 170.158 211.723 181.233 209.169 182.596C206.973 183.769 196.129 184.952 193.14 185.259C192.656 185.31 192.377 185.336 192.377 185.336C189.257 189.597 193.389 199.786 195.133 198.664Z" fill="#FFD255"/>
<defs>
<linearGradient id="paint0_linear" x1="60.9201" y1="85.7228" x2="288.386" y2="85.7228" gradientUnits="userSpaceOnUse">
<stop stop-color="#FF9F55"/>
<stop offset="1" stop-color="#FFD255"/>
</linearGradient>
<linearGradient id="paint1_linear" x1="308.725" y1="239.484" x2="353.634" y2="239.484" gradientUnits="userSpaceOnUse">
<stop stop-color="#40D5E6"/>
<stop offset="1" stop-color="#5577FF"/>
</linearGradient>
<linearGradient id="paint2_linear" x1="341.669" y1="264.563" x2="382.28" y2="264.563" gradientUnits="userSpaceOnUse">
<stop stop-color="#40D5E6"/>
<stop offset="1" stop-color="#5577FF"/>
</linearGradient>
<linearGradient id="paint3_linear" x1="345.14" y1="270.473" x2="375.621" y2="270.473" gradientUnits="userSpaceOnUse">
<stop stop-color="#40D5E6"/>
<stop offset="1" stop-color="#5577FF"/>
</linearGradient>
<linearGradient id="paint4_linear" x1="334.133" y1="245.925" x2="369.632" y2="245.925" gradientUnits="userSpaceOnUse">
<stop stop-color="#40D5E6"/>
<stop offset="1" stop-color="#5577FF"/>
</linearGradient>
<linearGradient id="paint5_linear" x1="325.987" y1="296.883" x2="358.745" y2="296.883" gradientUnits="userSpaceOnUse">
<stop stop-color="#FF9340"/>
<stop offset="1" stop-color="#FFCE45"/>
</linearGradient>
<linearGradient id="paint6_linear" x1="325.987" y1="296.883" x2="358.745" y2="296.883" gradientUnits="userSpaceOnUse">
<stop stop-color="#C97332"/>
<stop offset="1" stop-color="#FFCE45"/>
</linearGradient>
</defs>
</svg>
