<svg height="480pt" viewBox="-40 0 480 480.01571" width="480pt" xmlns="http://www.w3.org/2000/svg" xmlns:xlink="http://www.w3.org/1999/xlink"><linearGradient id="linear0" gradientUnits="userSpaceOnUse" x1="200.007855" x2="200.007855" y1="480" y2="0"><stop offset="0" stop-color="#12c2e9"/><stop offset=".056" stop-color="#19bfe9"/><stop offset=".137" stop-color="#2db6ea"/><stop offset=".235" stop-color="#4da7ea"/><stop offset=".344" stop-color="#7993eb"/><stop offset=".462" stop-color="#b279ed"/><stop offset=".497" stop-color="#c471ed"/><stop offset="1" stop-color="#f64f59"/></linearGradient><path d="m201.945312 288.238281c4.289063 1.070313 6.894532 5.417969 5.824219 9.707031l-12.800781 51.054688 19.070312-4.761719c2.800782-.765625 5.792969.042969 7.828126 2.113281 2.03125 2.074219 2.78125 5.082032 1.960937 7.867188s-3.085937 4.902344-5.917969 5.542969l-32 8c-2.722656.679687-5.605468-.121094-7.59375-2.109375-1.984375-1.988282-2.78125-4.871094-2.101562-7.597656l16-64c.515625-2.0625 1.832031-3.835938 3.65625-4.925782 1.828125-1.09375 4.011718-1.410156 6.074218-.890625zm-40-16c-4.28125-1.082031-8.632812 1.503907-9.722656 5.785157-.039062.28125-6.808594 25.976562-24.214844 25.976562s-24.175781-25.695312-24.238281-25.960938c-1.078125-4.285156-5.429687-6.886718-9.714843-5.808593-4.285157 1.078125-6.886719 5.429687-5.808594 9.714843.386718 1.550782 9.859375 38.054688 39.761718 38.054688 29.902344 0 39.375-36.503906 39.761719-38.054688 1.0625-4.277343-1.53125-8.609374-5.800781-9.6875zm110.0625 47.761719c29.902344 0 39.375-36.503906 39.761719-38.054688 1.078125-4.285156-1.523437-8.636718-5.808593-9.714843-4.285157-1.078125-8.636719 1.523437-9.714844 5.808593-.0625.265626-6.832032 25.960938-24.238282 25.960938s-24.175781-25.695312-24.238281-25.960938c-1.078125-4.285156-5.429687-6.886718-9.714843-5.808593-4.285157 1.078125-6.886719 5.429687-5.808594 9.714843.386718 1.550782 9.859375 38.054688 39.761718 38.054688zm128-40c0 23.503906-14.160156 43.070312-32.800781 47.199219-7.8125 86.535156-80.347656 152.816406-167.230469 152.816406-86.886718 0-159.421874-66.28125-167.234374-152.816406-18.574219-4.128907-32.7343755-23.695313-32.7343755-47.199219 0-23.199219 13.7695315-42.566406 31.9999995-47.03125v-48.96875c0-16.273438 26.953126-27.945312 80-34.777344v-109.222656c.027344-22.082031 17.917969-39.9726562 40-40h128c4.417969 0 8 3.582031 8 8v141.222656c53.046876 6.832032 80 18.503906 80 34.777344v48.96875c18.230469 4.464844 32 23.832031 32 47.03125zm-368-30.03125c-10.535156 6.226562-16.710937 17.816406-16 30.03125-.710937 12.214844 5.464844 23.804688 16 30.03125zm96-209.96875c0 13.253906 10.746094 24 24 24h120v-16h-88c-4.417968 0-8-3.582031-8-8s3.582032-8 8-8h88v-16h-120c-13.253906 0-24 10.746094-24 24zm32 40v41.046875l11.558594-7.703125c2.691406-1.792969 6.191406-1.792969 8.882813 0l11.558593 7.703125v-41.046875zm-32 96h144v-96h-64v56c0 2.949219-1.625 5.664062-4.226562 7.054688-2.601562 1.390624-5.757812 1.238281-8.214844-.398438l-19.558594-13.054688-19.558593 13.039063c-2.453125 1.636719-5.609375 1.789063-8.207031.402344-2.601563-1.386719-4.230469-4.09375-4.234376-7.042969v-56.800781c-5.820312-1.234375-11.289062-3.761719-16-7.398438zm224 26.894531c-40.871093 20.792969-146.472656 21.105469-152 21.105469-5.527343 0-111.128906-.3125-152-21.105469v109.105469c0 83.949219 68.054688 152 152 152 83.949219 0 152-68.050781 152-152zm.054688-19.277343c-1.207031-2.289063-15.726562-11.808594-64.054688-18.273438v18.65625c0 4.417969-3.582031 8-8 8h-160c-4.417968 0-8-3.582031-8-8v-18.65625c-47.910156 6.398438-62.574218 15.855469-64 18.953125v.160156c3.792969 8 57.601563 23.542969 152 23.542969 94.695313 0 148.519532-15.632812 152.054688-24.382812zm31.945312 96.382812c.710938-12.214844-5.464843-23.804688-16-30.03125v60.0625c10.535157-6.226562 16.710938-17.816406 16-30.03125zm0 0" fill="url(#linear0)"/></svg>