<?xml version="1.0" standalone="no"?>
<!DOCTYPE svg PUBLIC "-//W3C//DTD SVG 20010904//EN"
 "http://www.w3.org/TR/2001/REC-SVG-20010904/DTD/svg10.dtd">
<svg version="1.0" xmlns="http://www.w3.org/2000/svg"
 width="1039.000000pt" height="846.000000pt" viewBox="0 0 1039.000000 846.000000"
 preserveAspectRatio="xMidYMid meet">

<g transform="translate(0.000000,846.000000) scale(0.100000,-0.100000)"
fill="#000000" stroke="none">
<path d="M5425 8453 c-61 -9 -262 -66 -333 -94 -515 -204 -886 -659 -968
-1184 -18 -116 -18 -356 0 -465 13 -82 62 -259 111 -405 32 -96 132 -436 189
-645 42 -157 102 -446 122 -595 18 -138 29 -411 20 -487 l-7 -58 -227 -215
-227 -215 -110 0 -110 0 -1 -68 c-1 -74 -25 -168 -54 -219 l-19 -33 369 0 370
0 0 -70 0 -70 -436 0 -435 0 -42 -24 c-92 -52 -223 -73 -334 -53 l-43 7 0
-132 c0 -73 -4 -138 -8 -143 -4 -6 -138 -135 -299 -288 -248 -236 -294 -284
-310 -324 -17 -45 -18 -101 -18 -1058 l0 -1010 24 -53 c28 -63 103 -134 164
-155 38 -14 -57 -16 -973 -19 -558 -1 560 -5 2485 -8 1925 -3 3779 -3 4120 0
l620 5 -596 3 -595 2 0 53 c1 35 -8 74 -26 120 -32 76 -36 112 -13 103 12 -4
15 3 15 32 0 20 12 64 25 97 14 33 30 88 36 122 l11 61 41 -41 c23 -23 56 -50
74 -59 23 -12 35 -27 42 -55 15 -57 31 -198 31 -276 0 -84 11 -107 51 -107 43
0 80 22 132 80 51 56 77 121 77 189 0 35 12 69 50 144 56 110 70 162 49 181
-8 7 -42 23 -76 36 -52 18 -63 26 -63 45 0 33 -27 61 -89 92 -69 35 -100 79
-151 212 l-39 104 14 111 c21 161 85 870 85 941 0 33 4 75 9 92 5 18 15 145
22 281 l13 249 32 12 c51 18 159 139 179 201 19 57 63 113 105 135 32 17 153
201 187 287 14 33 28 81 33 106 4 26 51 166 105 312 123 334 295 826 301 859
4 22 -2 30 -38 51 -24 14 -77 60 -120 102 -61 61 -86 96 -122 170 -62 125 -79
199 -79 328 0 126 18 201 76 320 33 69 58 102 132 176 76 76 105 98 185 138
125 61 212 79 355 73 124 -6 210 -30 318 -90 101 -57 99 -45 23 -225 -36 -87
-66 -161 -66 -166 0 -4 48 34 106 86 138 122 140 124 159 108 29 -24 103 -189
120 -266 25 -111 16 -282 -19 -384 -110 -315 -426 -520 -745 -483 -47 5 -86 9
-87 9 -6 -8 -162 -471 -159 -474 1 -2 25 12 52 31 278 198 654 169 905 -71 32
-30 58 -59 58 -65 0 -5 -44 -57 -97 -116 -53 -58 -106 -116 -117 -129 l-21
-24 50 20 c28 11 101 40 163 65 l113 46 14 -33 c8 -17 17 -44 20 -59 9 -35 18
-40 49 -26 l26 12 0 1253 0 1252 -37 13 c-21 6 -42 15 -48 19 -5 4 -62 22
-125 40 -119 33 -191 43 -420 59 -939 68 -1323 139 -1697 318 -178 84 -442
247 -638 394 -105 78 -223 168 -286 219 -65 51 -179 141 -194 152 -5 4 -31 25
-57 47 -81 68 -213 169 -269 207 -73 49 -222 128 -289 154 -30 11 -64 25 -75
30 -11 6 -72 24 -135 42 -115 31 -116 31 -390 33 -151 2 -288 1 -305 -2z
m1713 -4415 c47 -133 57 -209 57 -458 0 -204 -2 -232 -22 -303 -13 -42 -23
-86 -23 -97 0 -33 36 -60 79 -60 39 0 40 -1 31 -27 -5 -16 -14 -68 -20 -118
-6 -49 -12 -91 -14 -92 -1 -1 -24 20 -51 47 l-48 49 29 6 c59 13 61 15 29 37
-16 12 -62 53 -100 93 -128 130 -195 297 -195 489 0 124 19 206 70 311 32 65
130 205 145 205 1 0 16 -37 33 -82z m1087 -90 c53 -96 77 -186 82 -303 l5
-110 -80 -57 -81 -57 -21 26 c-26 33 -25 63 1 97 19 25 21 43 26 262 7 264 4
258 68 142z m-1805 -728 l0 -40 -1470 0 -1470 0 0 40 0 40 1470 0 1470 0 0
-40z m0 -270 l0 -40 -1470 0 -1470 0 0 40 0 40 1470 0 1470 0 0 -40z m0 -270
l0 -40 -1470 0 -1470 0 0 40 0 40 1470 0 1470 0 0 -40z m1325 -273 c6 -40 -8
-315 -22 -436 -5 -48 -7 -52 -15 -30 -10 25 -27 272 -28 390 0 52 4 72 21 93
28 36 37 33 44 -17z m-248 -797 c32 -41 79 -103 103 -137 l43 -62 -21 -73
c-18 -63 -72 -467 -72 -543 0 -15 11 -37 26 -52 21 -21 24 -30 16 -44 -19 -29
-24 -110 -13 -189 8 -64 14 -79 41 -103 l30 -27 -226 0 -226 0 63 33 c40 20
75 48 96 75 63 83 64 92 70 675 3 290 7 526 8 525 2 -2 29 -37 62 -78z"/>
<path d="M8883 3794 c-22 -57 -38 -104 -35 -104 4 0 35 12 68 27 l62 26 -19
55 c-11 30 -19 63 -19 73 0 44 -18 19 -57 -77z"/>
<path d="M1973 1905 c-354 -64 -648 -336 -813 -751 -76 -190 -140 -574 -96
-574 11 0 864 985 890 1028 7 12 1 14 -33 10 -22 -2 -41 -2 -41 0 0 4 189 251
218 285 14 16 13 17 -19 16 -19 0 -66 -7 -106 -14z"/>
<path d="M225 1520 c32 -397 205 -711 486 -882 102 -62 270 -106 308 -80 10 8
-41 113 -239 493 -138 266 -254 486 -257 489 -8 8 7 -184 22 -275 7 -44 11
-81 10 -83 -2 -2 -74 88 -160 200 -87 112 -162 208 -167 213 -7 7 -8 -19 -3
-75z"/>
</g>
</svg>
