<svg height="492pt" viewBox="0 -46 492.04095 492" width="492pt" xmlns="http://www.w3.org/2000/svg" xmlns:xlink="http://www.w3.org/1999/xlink"><linearGradient id="a"><stop offset=".322" stop-color="#a163f5"/><stop offset=".466" stop-color="#b074ee"/><stop offset=".752" stop-color="#d8a1dd"/><stop offset=".898" stop-color="#efbad3"/></linearGradient><linearGradient id="b" gradientUnits="userSpaceOnUse" x1="246.000014" x2="246.000014" xlink:href="#a" y1="419.585482" y2="-29.523518"/><linearGradient id="c" gradientUnits="userSpaceOnUse" x1="366.000014" x2="366.000014" xlink:href="#a" y1="419.585482" y2="-29.523518"/><path d="m366 .0195312c-67.09375-.0117187-122.421875 52.5664068-125.824219 119.5742188h-194.175781c-23.160156.03125-42.691406 17.253906-45.625 40.226562-.3632812.980469-.4609375 2.039063-.2890625 3.070313-.0507813.902344-.0859375 1.800781-.0859375 2.707031v187.421875c-.0078125 10.796875 3.800781 21.25 10.75 29.515625.285156.5625.65625 1.082032 1.101562 1.527344.292969.289062.613282.542969.960938.765625 8.65625 9.066406 20.648438 14.195313 33.1875 14.191406h280c12.523438.003907 24.503906-5.113281 33.160156-14.167969.890625-.554687 1.605469-1.351562 2.066406-2.292968 6.964844-8.265625 10.78125-18.730469 10.773438-29.539063v-101.140625c68.359375-3.234375 121.636719-60.445312 120.003906-128.859375-1.628906-68.414062-57.570312-123.019531-126.003906-122.9999998zm-320 131.5742188h194.125c1.289062 30.238281 13.460938 58.988281 34.28125 80.957031 3.347656 3.539063 6.890625 6.882813 10.613281 10.023438l-79.566406 67.480469c-11.171875 9.53125-27.613281 9.535156-38.792969.015624l-154.113281-130.5c2.929687-16.179687 17.007813-27.953124 33.453125-27.976562zm314 221.425781c.007812 6.148438-1.664062 12.179688-4.828125 17.445313l-85.058594-86.535156c-2.320312-2.363282-6.121093-2.394532-8.484375-.070313-2.363281 2.320313-2.394531 6.121094-.070312 8.484375l85.699218 87.191406c-6.023437 4.851563-13.523437 7.492188-21.257812 7.484375h-280c-7.75.007813-15.265625-2.648437-21.292969-7.519531l85.226563-87.171875c2.316406-2.367187 2.273437-6.167969-.09375-8.484375-2.371094-2.316406-6.167969-2.273438-8.484375.097656l-84.554688 86.480469c-3.148437-5.257813-4.808593-11.273437-4.800781-17.402344v-178.1875l146.90625 124.402344c15.652344 13.324219 38.664062 13.316406 54.308594-.023437l81.566406-69.175782c19.253906 13.261719 41.859375 20.835938 65.21875 21.847656zm6-113c-24.28125.097657-47.945312-7.640625-67.480469-22.0625-.269531-.25-.5625-.472656-.875-.664062-5.191406-3.914063-10.050781-8.261719-14.515625-12.988281-37.136718-39.316407-41.535156-99.316407-10.53125-143.628907 31-44.3125 88.871094-60.7460935 138.535156-39.339843 49.664063 21.410156 77.449219 74.765624 66.519532 127.730468-10.929688 52.964844-57.570313 90.960938-111.652344 90.960938zm0 0" fill="url(#b)"/><g fill="url(#c)"><path d="m260.660156 123.289062c-.878906 1.714844-.878906 3.75 0 5.464844 20.226563 39.558594 60.910156 64.453125 105.339844 64.453125s85.113281-24.894531 105.339844-64.453125c.878906-1.714844.878906-3.75 0-5.464844-20.226563-39.558593-60.910156-64.453124-105.339844-64.453124s-85.113281 24.894531-105.339844 64.453124zm198.550782 2.730469c-18.667969 34.03125-54.398438 55.183594-93.210938 55.183594s-74.542969-21.152344-93.210938-55.183594c18.667969-34.03125 54.394532-55.183593 93.210938-55.183593s74.542969 21.152343 93.210938 55.183593zm0 0"/><path d="m330.648438 126.019531c.003906 13.386719 7.574218 25.621094 19.546874 31.605469 11.976563 5.988281 26.304688 4.695312 37.011719-3.335938 10.710938-8.03125 15.96875-21.425781 13.578125-34.597656-.339844-1.859375-1.539062-3.453125-3.234375-4.292968-1.695312-.84375-3.6875-.835938-5.378906.019531-1.609375.816406-3.386719 1.238281-5.191406 1.234375-6.410157-.007813-11.605469-5.203125-11.613281-11.613282-.003907-1.804687.417968-3.582031 1.234374-5.191406.855469-1.691406.863282-3.683594.019532-5.378906-.839844-1.695312-2.433594-2.894531-4.296875-3.234375-10.3125-1.871094-20.925781.929687-28.972657 7.648437-8.046874 6.714844-12.699218 16.65625-12.703124 27.136719zm56.332031 2.632813c.75 0 1.496093-.035156 2.234375-.101563-1.324219 12.171875-11.824219 21.253907-24.058594 20.808594-12.234375-.441406-22.050781-10.257813-22.492188-22.492187-.445312-12.234376 8.636719-22.734376 20.808594-24.058594-.066406.738281-.101562 1.480468-.101562 2.234375.019531 13.03125 10.578125 23.59375 23.609375 23.609375zm0 0"/></g></svg>